<?xml version="1.0" encoding="utf-8" standalone="no"?>
<!DOCTYPE svg PUBLIC "-//W3C//DTD SVG 1.1//EN"
  "http://www.w3.org/Graphics/SVG/1.1/DTD/svg11.dtd">
<!-- Created with matplotlib (https://matplotlib.org/) -->
<svg height="432pt" version="1.1" viewBox="0 0 1008 432" width="1008pt" xmlns="http://www.w3.org/2000/svg" xmlns:xlink="http://www.w3.org/1999/xlink">
 <metadata>
  <rdf:RDF xmlns:cc="http://creativecommons.org/ns#" xmlns:dc="http://purl.org/dc/elements/1.1/" xmlns:rdf="http://www.w3.org/1999/02/22-rdf-syntax-ns#">
   <cc:Work>
    <dc:type rdf:resource="http://purl.org/dc/dcmitype/StillImage"/>
    <dc:date>2020-12-11T03:16:09.519504</dc:date>
    <dc:format>image/svg+xml</dc:format>
    <dc:creator>
     <cc:Agent>
      <dc:title>Matplotlib v3.3.3, https://matplotlib.org/</dc:title>
     </cc:Agent>
    </dc:creator>
   </cc:Work>
  </rdf:RDF>
 </metadata>
 <defs>
  <style type="text/css">*{stroke-linecap:butt;stroke-linejoin:round;}</style>
 </defs>
 <g id="figure_1">
  <g id="patch_1">
   <path d="M 0 432 
L 1008 432 
L 1008 0 
L 0 0 
z
" style="fill:#ffffff;"/>
  </g>
  <g id="axes_1">
   <g id="patch_2">
    <path d="M 100.8 388.8 
L 705.6 388.8 
L 705.6 64.8 
L 100.8 64.8 
z
" style="fill:#ffffff;"/>
   </g>
   <g id="matplotlib.axis_1">
    <g id="xtick_1">
     <g id="line2d_1">
      <path clip-path="url(#pc1f145cb3b)" d="M 153.26828 388.8 
L 153.26828 64.8 
" style="fill:none;stroke:#b0b0b0;stroke-linecap:square;stroke-width:0.8;"/>
     </g>
     <g id="line2d_2">
      <defs>
       <path d="M 0 0 
L 0 3.5 
" id="m8a60cfc438" style="stroke:#000000;stroke-width:0.8;"/>
      </defs>
      <g>
       <use style="stroke:#000000;stroke-width:0.8;" x="153.26828" xlink:href="#m8a60cfc438" y="388.8"/>
      </g>
     </g>
     <g id="text_1">
      <!-- 0 -->
      <g transform="translate(150.08703 403.398438)scale(0.1 -0.1)">
       <defs>
        <path d="M 31.78125 66.40625 
Q 24.171875 66.40625 20.328125 58.90625 
Q 16.5 51.421875 16.5 36.375 
Q 16.5 21.390625 20.328125 13.890625 
Q 24.171875 6.390625 31.78125 6.390625 
Q 39.453125 6.390625 43.28125 13.890625 
Q 47.125 21.390625 47.125 36.375 
Q 47.125 51.421875 43.28125 58.90625 
Q 39.453125 66.40625 31.78125 66.40625 
z
M 31.78125 74.21875 
Q 44.046875 74.21875 50.515625 64.515625 
Q 56.984375 54.828125 56.984375 36.375 
Q 56.984375 17.96875 50.515625 8.265625 
Q 44.046875 -1.421875 31.78125 -1.421875 
Q 19.53125 -1.421875 13.0625 8.265625 
Q 6.59375 17.96875 6.59375 36.375 
Q 6.59375 54.828125 13.0625 64.515625 
Q 19.53125 74.21875 31.78125 74.21875 
z
" id="DejaVuSans-48"/>
       </defs>
       <use xlink:href="#DejaVuSans-48"/>
      </g>
     </g>
    </g>
    <g id="xtick_2">
     <g id="line2d_3">
      <path clip-path="url(#pc1f145cb3b)" d="M 232.271593 388.8 
L 232.271593 64.8 
" style="fill:none;stroke:#b0b0b0;stroke-linecap:square;stroke-width:0.8;"/>
     </g>
     <g id="line2d_4">
      <g>
       <use style="stroke:#000000;stroke-width:0.8;" x="232.271593" xlink:href="#m8a60cfc438" y="388.8"/>
      </g>
     </g>
     <g id="text_2">
      <!-- 5 -->
      <g transform="translate(229.090343 403.398438)scale(0.1 -0.1)">
       <defs>
        <path d="M 10.796875 72.90625 
L 49.515625 72.90625 
L 49.515625 64.59375 
L 19.828125 64.59375 
L 19.828125 46.734375 
Q 21.96875 47.46875 24.109375 47.828125 
Q 26.265625 48.1875 28.421875 48.1875 
Q 40.625 48.1875 47.75 41.5 
Q 54.890625 34.8125 54.890625 23.390625 
Q 54.890625 11.625 47.5625 5.09375 
Q 40.234375 -1.421875 26.90625 -1.421875 
Q 22.3125 -1.421875 17.546875 -0.640625 
Q 12.796875 0.140625 7.71875 1.703125 
L 7.71875 11.625 
Q 12.109375 9.234375 16.796875 8.0625 
Q 21.484375 6.890625 26.703125 6.890625 
Q 35.15625 6.890625 40.078125 11.328125 
Q 45.015625 15.765625 45.015625 23.390625 
Q 45.015625 31 40.078125 35.4375 
Q 35.15625 39.890625 26.703125 39.890625 
Q 22.75 39.890625 18.8125 39.015625 
Q 14.890625 38.140625 10.796875 36.28125 
z
" id="DejaVuSans-53"/>
       </defs>
       <use xlink:href="#DejaVuSans-53"/>
      </g>
     </g>
    </g>
    <g id="xtick_3">
     <g id="line2d_5">
      <path clip-path="url(#pc1f145cb3b)" d="M 311.274906 388.8 
L 311.274906 64.8 
" style="fill:none;stroke:#b0b0b0;stroke-linecap:square;stroke-width:0.8;"/>
     </g>
     <g id="line2d_6">
      <g>
       <use style="stroke:#000000;stroke-width:0.8;" x="311.274906" xlink:href="#m8a60cfc438" y="388.8"/>
      </g>
     </g>
     <g id="text_3">
      <!-- 10 -->
      <g transform="translate(304.912406 403.398438)scale(0.1 -0.1)">
       <defs>
        <path d="M 12.40625 8.296875 
L 28.515625 8.296875 
L 28.515625 63.921875 
L 10.984375 60.40625 
L 10.984375 69.390625 
L 28.421875 72.90625 
L 38.28125 72.90625 
L 38.28125 8.296875 
L 54.390625 8.296875 
L 54.390625 0 
L 12.40625 0 
z
" id="DejaVuSans-49"/>
       </defs>
       <use xlink:href="#DejaVuSans-49"/>
       <use x="63.623047" xlink:href="#DejaVuSans-48"/>
      </g>
     </g>
    </g>
    <g id="xtick_4">
     <g id="line2d_7">
      <path clip-path="url(#pc1f145cb3b)" d="M 390.278219 388.8 
L 390.278219 64.8 
" style="fill:none;stroke:#b0b0b0;stroke-linecap:square;stroke-width:0.8;"/>
     </g>
     <g id="line2d_8">
      <g>
       <use style="stroke:#000000;stroke-width:0.8;" x="390.278219" xlink:href="#m8a60cfc438" y="388.8"/>
      </g>
     </g>
     <g id="text_4">
      <!-- 15 -->
      <g transform="translate(383.915719 403.398438)scale(0.1 -0.1)">
       <use xlink:href="#DejaVuSans-49"/>
       <use x="63.623047" xlink:href="#DejaVuSans-53"/>
      </g>
     </g>
    </g>
    <g id="xtick_5">
     <g id="line2d_9">
      <path clip-path="url(#pc1f145cb3b)" d="M 469.281532 388.8 
L 469.281532 64.8 
" style="fill:none;stroke:#b0b0b0;stroke-linecap:square;stroke-width:0.8;"/>
     </g>
     <g id="line2d_10">
      <g>
       <use style="stroke:#000000;stroke-width:0.8;" x="469.281532" xlink:href="#m8a60cfc438" y="388.8"/>
      </g>
     </g>
     <g id="text_5">
      <!-- 20 -->
      <g transform="translate(462.919032 403.398438)scale(0.1 -0.1)">
       <defs>
        <path d="M 19.1875 8.296875 
L 53.609375 8.296875 
L 53.609375 0 
L 7.328125 0 
L 7.328125 8.296875 
Q 12.9375 14.109375 22.625 23.890625 
Q 32.328125 33.6875 34.8125 36.53125 
Q 39.546875 41.84375 41.421875 45.53125 
Q 43.3125 49.21875 43.3125 52.78125 
Q 43.3125 58.59375 39.234375 62.25 
Q 35.15625 65.921875 28.609375 65.921875 
Q 23.96875 65.921875 18.8125 64.3125 
Q 13.671875 62.703125 7.8125 59.421875 
L 7.8125 69.390625 
Q 13.765625 71.78125 18.9375 73 
Q 24.125 74.21875 28.421875 74.21875 
Q 39.75 74.21875 46.484375 68.546875 
Q 53.21875 62.890625 53.21875 53.421875 
Q 53.21875 48.921875 51.53125 44.890625 
Q 49.859375 40.875 45.40625 35.40625 
Q 44.1875 33.984375 37.640625 27.21875 
Q 31.109375 20.453125 19.1875 8.296875 
z
" id="DejaVuSans-50"/>
       </defs>
       <use xlink:href="#DejaVuSans-50"/>
       <use x="63.623047" xlink:href="#DejaVuSans-48"/>
      </g>
     </g>
    </g>
    <g id="xtick_6">
     <g id="line2d_11">
      <path clip-path="url(#pc1f145cb3b)" d="M 548.284845 388.8 
L 548.284845 64.8 
" style="fill:none;stroke:#b0b0b0;stroke-linecap:square;stroke-width:0.8;"/>
     </g>
     <g id="line2d_12">
      <g>
       <use style="stroke:#000000;stroke-width:0.8;" x="548.284845" xlink:href="#m8a60cfc438" y="388.8"/>
      </g>
     </g>
     <g id="text_6">
      <!-- 25 -->
      <g transform="translate(541.922345 403.398438)scale(0.1 -0.1)">
       <use xlink:href="#DejaVuSans-50"/>
       <use x="63.623047" xlink:href="#DejaVuSans-53"/>
      </g>
     </g>
    </g>
    <g id="xtick_7">
     <g id="line2d_13">
      <path clip-path="url(#pc1f145cb3b)" d="M 627.288158 388.8 
L 627.288158 64.8 
" style="fill:none;stroke:#b0b0b0;stroke-linecap:square;stroke-width:0.8;"/>
     </g>
     <g id="line2d_14">
      <g>
       <use style="stroke:#000000;stroke-width:0.8;" x="627.288158" xlink:href="#m8a60cfc438" y="388.8"/>
      </g>
     </g>
     <g id="text_7">
      <!-- 30 -->
      <g transform="translate(620.925658 403.398438)scale(0.1 -0.1)">
       <defs>
        <path d="M 40.578125 39.3125 
Q 47.65625 37.796875 51.625 33 
Q 55.609375 28.21875 55.609375 21.1875 
Q 55.609375 10.40625 48.1875 4.484375 
Q 40.765625 -1.421875 27.09375 -1.421875 
Q 22.515625 -1.421875 17.65625 -0.515625 
Q 12.796875 0.390625 7.625 2.203125 
L 7.625 11.71875 
Q 11.71875 9.328125 16.59375 8.109375 
Q 21.484375 6.890625 26.8125 6.890625 
Q 36.078125 6.890625 40.9375 10.546875 
Q 45.796875 14.203125 45.796875 21.1875 
Q 45.796875 27.640625 41.28125 31.265625 
Q 36.765625 34.90625 28.71875 34.90625 
L 20.21875 34.90625 
L 20.21875 43.015625 
L 29.109375 43.015625 
Q 36.375 43.015625 40.234375 45.921875 
Q 44.09375 48.828125 44.09375 54.296875 
Q 44.09375 59.90625 40.109375 62.90625 
Q 36.140625 65.921875 28.71875 65.921875 
Q 24.65625 65.921875 20.015625 65.03125 
Q 15.375 64.15625 9.8125 62.3125 
L 9.8125 71.09375 
Q 15.4375 72.65625 20.34375 73.4375 
Q 25.25 74.21875 29.59375 74.21875 
Q 40.828125 74.21875 47.359375 69.109375 
Q 53.90625 64.015625 53.90625 55.328125 
Q 53.90625 49.265625 50.4375 45.09375 
Q 46.96875 40.921875 40.578125 39.3125 
z
" id="DejaVuSans-51"/>
       </defs>
       <use xlink:href="#DejaVuSans-51"/>
       <use x="63.623047" xlink:href="#DejaVuSans-48"/>
      </g>
     </g>
    </g>
    <g id="text_8">
     <!-- time (in seconds) -->
     <g transform="translate(359.828906 417.076563)scale(0.1 -0.1)">
      <defs>
       <path d="M 18.3125 70.21875 
L 18.3125 54.6875 
L 36.8125 54.6875 
L 36.8125 47.703125 
L 18.3125 47.703125 
L 18.3125 18.015625 
Q 18.3125 11.328125 20.140625 9.421875 
Q 21.96875 7.515625 27.59375 7.515625 
L 36.8125 7.515625 
L 36.8125 0 
L 27.59375 0 
Q 17.1875 0 13.234375 3.875 
Q 9.28125 7.765625 9.28125 18.015625 
L 9.28125 47.703125 
L 2.6875 47.703125 
L 2.6875 54.6875 
L 9.28125 54.6875 
L 9.28125 70.21875 
z
" id="DejaVuSans-116"/>
       <path d="M 9.421875 54.6875 
L 18.40625 54.6875 
L 18.40625 0 
L 9.421875 0 
z
M 9.421875 75.984375 
L 18.40625 75.984375 
L 18.40625 64.59375 
L 9.421875 64.59375 
z
" id="DejaVuSans-105"/>
       <path d="M 52 44.1875 
Q 55.375 50.25 60.0625 53.125 
Q 64.75 56 71.09375 56 
Q 79.640625 56 84.28125 50.015625 
Q 88.921875 44.046875 88.921875 33.015625 
L 88.921875 0 
L 79.890625 0 
L 79.890625 32.71875 
Q 79.890625 40.578125 77.09375 44.375 
Q 74.3125 48.1875 68.609375 48.1875 
Q 61.625 48.1875 57.5625 43.546875 
Q 53.515625 38.921875 53.515625 30.90625 
L 53.515625 0 
L 44.484375 0 
L 44.484375 32.71875 
Q 44.484375 40.625 41.703125 44.40625 
Q 38.921875 48.1875 33.109375 48.1875 
Q 26.21875 48.1875 22.15625 43.53125 
Q 18.109375 38.875 18.109375 30.90625 
L 18.109375 0 
L 9.078125 0 
L 9.078125 54.6875 
L 18.109375 54.6875 
L 18.109375 46.1875 
Q 21.1875 51.21875 25.484375 53.609375 
Q 29.78125 56 35.6875 56 
Q 41.65625 56 45.828125 52.96875 
Q 50 49.953125 52 44.1875 
z
" id="DejaVuSans-109"/>
       <path d="M 56.203125 29.59375 
L 56.203125 25.203125 
L 14.890625 25.203125 
Q 15.484375 15.921875 20.484375 11.0625 
Q 25.484375 6.203125 34.421875 6.203125 
Q 39.59375 6.203125 44.453125 7.46875 
Q 49.3125 8.734375 54.109375 11.28125 
L 54.109375 2.78125 
Q 49.265625 0.734375 44.1875 -0.34375 
Q 39.109375 -1.421875 33.890625 -1.421875 
Q 20.796875 -1.421875 13.15625 6.1875 
Q 5.515625 13.8125 5.515625 26.8125 
Q 5.515625 40.234375 12.765625 48.109375 
Q 20.015625 56 32.328125 56 
Q 43.359375 56 49.78125 48.890625 
Q 56.203125 41.796875 56.203125 29.59375 
z
M 47.21875 32.234375 
Q 47.125 39.59375 43.09375 43.984375 
Q 39.0625 48.390625 32.421875 48.390625 
Q 24.90625 48.390625 20.390625 44.140625 
Q 15.875 39.890625 15.1875 32.171875 
z
" id="DejaVuSans-101"/>
       <path id="DejaVuSans-32"/>
       <path d="M 31 75.875 
Q 24.46875 64.65625 21.28125 53.65625 
Q 18.109375 42.671875 18.109375 31.390625 
Q 18.109375 20.125 21.3125 9.0625 
Q 24.515625 -2 31 -13.1875 
L 23.1875 -13.1875 
Q 15.875 -1.703125 12.234375 9.375 
Q 8.59375 20.453125 8.59375 31.390625 
Q 8.59375 42.28125 12.203125 53.3125 
Q 15.828125 64.359375 23.1875 75.875 
z
" id="DejaVuSans-40"/>
       <path d="M 54.890625 33.015625 
L 54.890625 0 
L 45.90625 0 
L 45.90625 32.71875 
Q 45.90625 40.484375 42.875 44.328125 
Q 39.84375 48.1875 33.796875 48.1875 
Q 26.515625 48.1875 22.3125 43.546875 
Q 18.109375 38.921875 18.109375 30.90625 
L 18.109375 0 
L 9.078125 0 
L 9.078125 54.6875 
L 18.109375 54.6875 
L 18.109375 46.1875 
Q 21.34375 51.125 25.703125 53.5625 
Q 30.078125 56 35.796875 56 
Q 45.21875 56 50.046875 50.171875 
Q 54.890625 44.34375 54.890625 33.015625 
z
" id="DejaVuSans-110"/>
       <path d="M 44.28125 53.078125 
L 44.28125 44.578125 
Q 40.484375 46.53125 36.375 47.5 
Q 32.28125 48.484375 27.875 48.484375 
Q 21.1875 48.484375 17.84375 46.4375 
Q 14.5 44.390625 14.5 40.28125 
Q 14.5 37.15625 16.890625 35.375 
Q 19.28125 33.59375 26.515625 31.984375 
L 29.59375 31.296875 
Q 39.15625 29.25 43.1875 25.515625 
Q 47.21875 21.78125 47.21875 15.09375 
Q 47.21875 7.46875 41.1875 3.015625 
Q 35.15625 -1.421875 24.609375 -1.421875 
Q 20.21875 -1.421875 15.453125 -0.5625 
Q 10.6875 0.296875 5.421875 2 
L 5.421875 11.28125 
Q 10.40625 8.6875 15.234375 7.390625 
Q 20.0625 6.109375 24.8125 6.109375 
Q 31.15625 6.109375 34.5625 8.28125 
Q 37.984375 10.453125 37.984375 14.40625 
Q 37.984375 18.0625 35.515625 20.015625 
Q 33.0625 21.96875 24.703125 23.78125 
L 21.578125 24.515625 
Q 13.234375 26.265625 9.515625 29.90625 
Q 5.8125 33.546875 5.8125 39.890625 
Q 5.8125 47.609375 11.28125 51.796875 
Q 16.75 56 26.8125 56 
Q 31.78125 56 36.171875 55.265625 
Q 40.578125 54.546875 44.28125 53.078125 
z
" id="DejaVuSans-115"/>
       <path d="M 48.78125 52.59375 
L 48.78125 44.1875 
Q 44.96875 46.296875 41.140625 47.34375 
Q 37.3125 48.390625 33.40625 48.390625 
Q 24.65625 48.390625 19.8125 42.84375 
Q 14.984375 37.3125 14.984375 27.296875 
Q 14.984375 17.28125 19.8125 11.734375 
Q 24.65625 6.203125 33.40625 6.203125 
Q 37.3125 6.203125 41.140625 7.25 
Q 44.96875 8.296875 48.78125 10.40625 
L 48.78125 2.09375 
Q 45.015625 0.34375 40.984375 -0.53125 
Q 36.96875 -1.421875 32.421875 -1.421875 
Q 20.0625 -1.421875 12.78125 6.34375 
Q 5.515625 14.109375 5.515625 27.296875 
Q 5.515625 40.671875 12.859375 48.328125 
Q 20.21875 56 33.015625 56 
Q 37.15625 56 41.109375 55.140625 
Q 45.0625 54.296875 48.78125 52.59375 
z
" id="DejaVuSans-99"/>
       <path d="M 30.609375 48.390625 
Q 23.390625 48.390625 19.1875 42.75 
Q 14.984375 37.109375 14.984375 27.296875 
Q 14.984375 17.484375 19.15625 11.84375 
Q 23.34375 6.203125 30.609375 6.203125 
Q 37.796875 6.203125 41.984375 11.859375 
Q 46.1875 17.53125 46.1875 27.296875 
Q 46.1875 37.015625 41.984375 42.703125 
Q 37.796875 48.390625 30.609375 48.390625 
z
M 30.609375 56 
Q 42.328125 56 49.015625 48.375 
Q 55.71875 40.765625 55.71875 27.296875 
Q 55.71875 13.875 49.015625 6.21875 
Q 42.328125 -1.421875 30.609375 -1.421875 
Q 18.84375 -1.421875 12.171875 6.21875 
Q 5.515625 13.875 5.515625 27.296875 
Q 5.515625 40.765625 12.171875 48.375 
Q 18.84375 56 30.609375 56 
z
" id="DejaVuSans-111"/>
       <path d="M 45.40625 46.390625 
L 45.40625 75.984375 
L 54.390625 75.984375 
L 54.390625 0 
L 45.40625 0 
L 45.40625 8.203125 
Q 42.578125 3.328125 38.25 0.953125 
Q 33.9375 -1.421875 27.875 -1.421875 
Q 17.96875 -1.421875 11.734375 6.484375 
Q 5.515625 14.40625 5.515625 27.296875 
Q 5.515625 40.1875 11.734375 48.09375 
Q 17.96875 56 27.875 56 
Q 33.9375 56 38.25 53.625 
Q 42.578125 51.265625 45.40625 46.390625 
z
M 14.796875 27.296875 
Q 14.796875 17.390625 18.875 11.75 
Q 22.953125 6.109375 30.078125 6.109375 
Q 37.203125 6.109375 41.296875 11.75 
Q 45.40625 17.390625 45.40625 27.296875 
Q 45.40625 37.203125 41.296875 42.84375 
Q 37.203125 48.484375 30.078125 48.484375 
Q 22.953125 48.484375 18.875 42.84375 
Q 14.796875 37.203125 14.796875 27.296875 
z
" id="DejaVuSans-100"/>
       <path d="M 8.015625 75.875 
L 15.828125 75.875 
Q 23.140625 64.359375 26.78125 53.3125 
Q 30.421875 42.28125 30.421875 31.390625 
Q 30.421875 20.453125 26.78125 9.375 
Q 23.140625 -1.703125 15.828125 -13.1875 
L 8.015625 -13.1875 
Q 14.5 -2 17.703125 9.0625 
Q 20.90625 20.125 20.90625 31.390625 
Q 20.90625 42.671875 17.703125 53.65625 
Q 14.5 64.65625 8.015625 75.875 
z
" id="DejaVuSans-41"/>
      </defs>
      <use xlink:href="#DejaVuSans-116"/>
      <use x="39.208984" xlink:href="#DejaVuSans-105"/>
      <use x="66.992188" xlink:href="#DejaVuSans-109"/>
      <use x="164.404297" xlink:href="#DejaVuSans-101"/>
      <use x="225.927734" xlink:href="#DejaVuSans-32"/>
      <use x="257.714844" xlink:href="#DejaVuSans-40"/>
      <use x="296.728516" xlink:href="#DejaVuSans-105"/>
      <use x="324.511719" xlink:href="#DejaVuSans-110"/>
      <use x="387.890625" xlink:href="#DejaVuSans-32"/>
      <use x="419.677734" xlink:href="#DejaVuSans-115"/>
      <use x="471.777344" xlink:href="#DejaVuSans-101"/>
      <use x="533.300781" xlink:href="#DejaVuSans-99"/>
      <use x="588.28125" xlink:href="#DejaVuSans-111"/>
      <use x="649.462891" xlink:href="#DejaVuSans-110"/>
      <use x="712.841797" xlink:href="#DejaVuSans-100"/>
      <use x="776.318359" xlink:href="#DejaVuSans-115"/>
      <use x="828.417969" xlink:href="#DejaVuSans-41"/>
     </g>
    </g>
   </g>
   <g id="matplotlib.axis_2">
    <g id="ytick_1">
     <g id="line2d_15">
      <path clip-path="url(#pc1f145cb3b)" d="M 100.8 363.268483 
L 705.6 363.268483 
" style="fill:none;stroke:#b0b0b0;stroke-linecap:square;stroke-width:0.8;"/>
     </g>
     <g id="line2d_16">
      <defs>
       <path d="M 0 0 
L -3.5 0 
" id="m02afef67dc" style="stroke:#000000;stroke-width:0.8;"/>
      </defs>
      <g>
       <use style="stroke:#000000;stroke-width:0.8;" x="100.8" xlink:href="#m02afef67dc" y="363.268483"/>
      </g>
     </g>
     <g id="text_9">
      <!-- 0 -->
      <g transform="translate(87.4375 367.067702)scale(0.1 -0.1)">
       <use xlink:href="#DejaVuSans-48"/>
      </g>
     </g>
    </g>
    <g id="ytick_2">
     <g id="line2d_17">
      <path clip-path="url(#pc1f145cb3b)" d="M 100.8 326.697078 
L 705.6 326.697078 
" style="fill:none;stroke:#b0b0b0;stroke-linecap:square;stroke-width:0.8;"/>
     </g>
     <g id="line2d_18">
      <g>
       <use style="stroke:#000000;stroke-width:0.8;" x="100.8" xlink:href="#m02afef67dc" y="326.697078"/>
      </g>
     </g>
     <g id="text_10">
      <!-- 25 -->
      <g transform="translate(81.075 330.496297)scale(0.1 -0.1)">
       <use xlink:href="#DejaVuSans-50"/>
       <use x="63.623047" xlink:href="#DejaVuSans-53"/>
      </g>
     </g>
    </g>
    <g id="ytick_3">
     <g id="line2d_19">
      <path clip-path="url(#pc1f145cb3b)" d="M 100.8 290.125673 
L 705.6 290.125673 
" style="fill:none;stroke:#b0b0b0;stroke-linecap:square;stroke-width:0.8;"/>
     </g>
     <g id="line2d_20">
      <g>
       <use style="stroke:#000000;stroke-width:0.8;" x="100.8" xlink:href="#m02afef67dc" y="290.125673"/>
      </g>
     </g>
     <g id="text_11">
      <!-- 50 -->
      <g transform="translate(81.075 293.924892)scale(0.1 -0.1)">
       <use xlink:href="#DejaVuSans-53"/>
       <use x="63.623047" xlink:href="#DejaVuSans-48"/>
      </g>
     </g>
    </g>
    <g id="ytick_4">
     <g id="line2d_21">
      <path clip-path="url(#pc1f145cb3b)" d="M 100.8 253.554268 
L 705.6 253.554268 
" style="fill:none;stroke:#b0b0b0;stroke-linecap:square;stroke-width:0.8;"/>
     </g>
     <g id="line2d_22">
      <g>
       <use style="stroke:#000000;stroke-width:0.8;" x="100.8" xlink:href="#m02afef67dc" y="253.554268"/>
      </g>
     </g>
     <g id="text_12">
      <!-- 75 -->
      <g transform="translate(81.075 257.353487)scale(0.1 -0.1)">
       <defs>
        <path d="M 8.203125 72.90625 
L 55.078125 72.90625 
L 55.078125 68.703125 
L 28.609375 0 
L 18.3125 0 
L 43.21875 64.59375 
L 8.203125 64.59375 
z
" id="DejaVuSans-55"/>
       </defs>
       <use xlink:href="#DejaVuSans-55"/>
       <use x="63.623047" xlink:href="#DejaVuSans-53"/>
      </g>
     </g>
    </g>
    <g id="ytick_5">
     <g id="line2d_23">
      <path clip-path="url(#pc1f145cb3b)" d="M 100.8 216.982864 
L 705.6 216.982864 
" style="fill:none;stroke:#b0b0b0;stroke-linecap:square;stroke-width:0.8;"/>
     </g>
     <g id="line2d_24">
      <g>
       <use style="stroke:#000000;stroke-width:0.8;" x="100.8" xlink:href="#m02afef67dc" y="216.982864"/>
      </g>
     </g>
     <g id="text_13">
      <!-- 100 -->
      <g transform="translate(74.7125 220.782082)scale(0.1 -0.1)">
       <use xlink:href="#DejaVuSans-49"/>
       <use x="63.623047" xlink:href="#DejaVuSans-48"/>
       <use x="127.246094" xlink:href="#DejaVuSans-48"/>
      </g>
     </g>
    </g>
    <g id="ytick_6">
     <g id="line2d_25">
      <path clip-path="url(#pc1f145cb3b)" d="M 100.8 180.411459 
L 705.6 180.411459 
" style="fill:none;stroke:#b0b0b0;stroke-linecap:square;stroke-width:0.8;"/>
     </g>
     <g id="line2d_26">
      <g>
       <use style="stroke:#000000;stroke-width:0.8;" x="100.8" xlink:href="#m02afef67dc" y="180.411459"/>
      </g>
     </g>
     <g id="text_14">
      <!-- 125 -->
      <g transform="translate(74.7125 184.210677)scale(0.1 -0.1)">
       <use xlink:href="#DejaVuSans-49"/>
       <use x="63.623047" xlink:href="#DejaVuSans-50"/>
       <use x="127.246094" xlink:href="#DejaVuSans-53"/>
      </g>
     </g>
    </g>
    <g id="ytick_7">
     <g id="line2d_27">
      <path clip-path="url(#pc1f145cb3b)" d="M 100.8 143.840054 
L 705.6 143.840054 
" style="fill:none;stroke:#b0b0b0;stroke-linecap:square;stroke-width:0.8;"/>
     </g>
     <g id="line2d_28">
      <g>
       <use style="stroke:#000000;stroke-width:0.8;" x="100.8" xlink:href="#m02afef67dc" y="143.840054"/>
      </g>
     </g>
     <g id="text_15">
      <!-- 150 -->
      <g transform="translate(74.7125 147.639273)scale(0.1 -0.1)">
       <use xlink:href="#DejaVuSans-49"/>
       <use x="63.623047" xlink:href="#DejaVuSans-53"/>
       <use x="127.246094" xlink:href="#DejaVuSans-48"/>
      </g>
     </g>
    </g>
    <g id="ytick_8">
     <g id="line2d_29">
      <path clip-path="url(#pc1f145cb3b)" d="M 100.8 107.268649 
L 705.6 107.268649 
" style="fill:none;stroke:#b0b0b0;stroke-linecap:square;stroke-width:0.8;"/>
     </g>
     <g id="line2d_30">
      <g>
       <use style="stroke:#000000;stroke-width:0.8;" x="100.8" xlink:href="#m02afef67dc" y="107.268649"/>
      </g>
     </g>
     <g id="text_16">
      <!-- 175 -->
      <g transform="translate(74.7125 111.067868)scale(0.1 -0.1)">
       <use xlink:href="#DejaVuSans-49"/>
       <use x="63.623047" xlink:href="#DejaVuSans-55"/>
       <use x="127.246094" xlink:href="#DejaVuSans-53"/>
      </g>
     </g>
    </g>
    <g id="ytick_9">
     <g id="line2d_31">
      <path clip-path="url(#pc1f145cb3b)" d="M 100.8 70.697244 
L 705.6 70.697244 
" style="fill:none;stroke:#b0b0b0;stroke-linecap:square;stroke-width:0.8;"/>
     </g>
     <g id="line2d_32">
      <g>
       <use style="stroke:#000000;stroke-width:0.8;" x="100.8" xlink:href="#m02afef67dc" y="70.697244"/>
      </g>
     </g>
     <g id="text_17">
      <!-- 200 -->
      <g transform="translate(74.7125 74.496463)scale(0.1 -0.1)">
       <use xlink:href="#DejaVuSans-50"/>
       <use x="63.623047" xlink:href="#DejaVuSans-48"/>
       <use x="127.246094" xlink:href="#DejaVuSans-48"/>
      </g>
     </g>
    </g>
    <g id="text_18">
     <!-- memory used (in MiB) -->
     <g transform="translate(68.632812 282.075781)rotate(-90)scale(0.1 -0.1)">
      <defs>
       <path d="M 41.109375 46.296875 
Q 39.59375 47.171875 37.8125 47.578125 
Q 36.03125 48 33.890625 48 
Q 26.265625 48 22.1875 43.046875 
Q 18.109375 38.09375 18.109375 28.8125 
L 18.109375 0 
L 9.078125 0 
L 9.078125 54.6875 
L 18.109375 54.6875 
L 18.109375 46.1875 
Q 20.953125 51.171875 25.484375 53.578125 
Q 30.03125 56 36.53125 56 
Q 37.453125 56 38.578125 55.875 
Q 39.703125 55.765625 41.0625 55.515625 
z
" id="DejaVuSans-114"/>
       <path d="M 32.171875 -5.078125 
Q 28.375 -14.84375 24.75 -17.8125 
Q 21.140625 -20.796875 15.09375 -20.796875 
L 7.90625 -20.796875 
L 7.90625 -13.28125 
L 13.1875 -13.28125 
Q 16.890625 -13.28125 18.9375 -11.515625 
Q 21 -9.765625 23.484375 -3.21875 
L 25.09375 0.875 
L 2.984375 54.6875 
L 12.5 54.6875 
L 29.59375 11.921875 
L 46.6875 54.6875 
L 56.203125 54.6875 
z
" id="DejaVuSans-121"/>
       <path d="M 8.5 21.578125 
L 8.5 54.6875 
L 17.484375 54.6875 
L 17.484375 21.921875 
Q 17.484375 14.15625 20.5 10.265625 
Q 23.53125 6.390625 29.59375 6.390625 
Q 36.859375 6.390625 41.078125 11.03125 
Q 45.3125 15.671875 45.3125 23.6875 
L 45.3125 54.6875 
L 54.296875 54.6875 
L 54.296875 0 
L 45.3125 0 
L 45.3125 8.40625 
Q 42.046875 3.421875 37.71875 1 
Q 33.40625 -1.421875 27.6875 -1.421875 
Q 18.265625 -1.421875 13.375 4.4375 
Q 8.5 10.296875 8.5 21.578125 
z
M 31.109375 56 
z
" id="DejaVuSans-117"/>
       <path d="M 9.8125 72.90625 
L 24.515625 72.90625 
L 43.109375 23.296875 
L 61.8125 72.90625 
L 76.515625 72.90625 
L 76.515625 0 
L 66.890625 0 
L 66.890625 64.015625 
L 48.09375 14.015625 
L 38.1875 14.015625 
L 19.390625 64.015625 
L 19.390625 0 
L 9.8125 0 
z
" id="DejaVuSans-77"/>
       <path d="M 19.671875 34.8125 
L 19.671875 8.109375 
L 35.5 8.109375 
Q 43.453125 8.109375 47.28125 11.40625 
Q 51.125 14.703125 51.125 21.484375 
Q 51.125 28.328125 47.28125 31.5625 
Q 43.453125 34.8125 35.5 34.8125 
z
M 19.671875 64.796875 
L 19.671875 42.828125 
L 34.28125 42.828125 
Q 41.5 42.828125 45.03125 45.53125 
Q 48.578125 48.25 48.578125 53.8125 
Q 48.578125 59.328125 45.03125 62.0625 
Q 41.5 64.796875 34.28125 64.796875 
z
M 9.8125 72.90625 
L 35.015625 72.90625 
Q 46.296875 72.90625 52.390625 68.21875 
Q 58.5 63.53125 58.5 54.890625 
Q 58.5 48.1875 55.375 44.234375 
Q 52.25 40.28125 46.1875 39.3125 
Q 53.46875 37.75 57.5 32.78125 
Q 61.53125 27.828125 61.53125 20.40625 
Q 61.53125 10.640625 54.890625 5.3125 
Q 48.25 0 35.984375 0 
L 9.8125 0 
z
" id="DejaVuSans-66"/>
      </defs>
      <use xlink:href="#DejaVuSans-109"/>
      <use x="97.412109" xlink:href="#DejaVuSans-101"/>
      <use x="158.935547" xlink:href="#DejaVuSans-109"/>
      <use x="256.347656" xlink:href="#DejaVuSans-111"/>
      <use x="317.529297" xlink:href="#DejaVuSans-114"/>
      <use x="358.642578" xlink:href="#DejaVuSans-121"/>
      <use x="417.822266" xlink:href="#DejaVuSans-32"/>
      <use x="449.609375" xlink:href="#DejaVuSans-117"/>
      <use x="512.988281" xlink:href="#DejaVuSans-115"/>
      <use x="565.087891" xlink:href="#DejaVuSans-101"/>
      <use x="626.611328" xlink:href="#DejaVuSans-100"/>
      <use x="690.087891" xlink:href="#DejaVuSans-32"/>
      <use x="721.875" xlink:href="#DejaVuSans-40"/>
      <use x="760.888672" xlink:href="#DejaVuSans-105"/>
      <use x="788.671875" xlink:href="#DejaVuSans-110"/>
      <use x="852.050781" xlink:href="#DejaVuSans-32"/>
      <use x="883.837891" xlink:href="#DejaVuSans-77"/>
      <use x="970.117188" xlink:href="#DejaVuSans-105"/>
      <use x="997.900391" xlink:href="#DejaVuSans-66"/>
      <use x="1066.503906" xlink:href="#DejaVuSans-41"/>
     </g>
    </g>
   </g>
   <g id="LineCollection_1">
    <path clip-path="url(#pc1f145cb3b)" d="M 128.290909 92.914373 
L 678.109091 92.914373 
" style="fill:none;stroke:#ff0000;stroke-dasharray:5.55,2.4;stroke-dashoffset:0;stroke-width:1.5;"/>
   </g>
   <g id="LineCollection_2">
    <path clip-path="url(#pc1f145cb3b)" d="M 223.908303 374.072727 
L 223.908303 79.527273 
" style="fill:none;stroke:#ff0000;stroke-dasharray:5.55,2.4;stroke-dashoffset:0;stroke-width:1.5;"/>
   </g>
   <g id="line2d_33">
    <path clip-path="url(#pc1f145cb3b)" d="M 153.26828 360.685627 
L 154.895747 329.15422 
L 156.534275 323.988509 
L 158.161746 323.314223 
L 159.801852 311.102803 
L 161.492524 299.548524 
L 163.119991 284.537106 
L 164.747462 282.159965 
L 166.35913 268.097116 
L 167.988175 261.491406 
L 169.615646 252.697125 
L 171.243113 233.982853 
L 172.87058 212.708581 
L 176.141318 109.022934 
L 177.768785 120.760068 
L 179.412055 120.760068 
L 181.039522 120.537211 
L 187.554137 120.491497 
L 189.246388 119.297212 
L 220.621762 119.285784 
L 222.265033 119.182927 
L 223.908303 92.914373 
L 225.55157 101.748652 
L 227.19484 100.834367 
L 228.838107 98.914368 
L 230.481377 111.537218 
L 233.736315 106.360078 
L 235.363782 117.314358 
L 268.113816 117.268643 
L 269.741283 117.034357 
L 273.01202 117.034357 
L 274.639487 116.862929 
L 432.385402 116.782928 
L 434.012873 112.651503 
L 435.64034 103.348651 
L 437.267807 99.788654 
L 438.911078 99.640082 
L 653.13172 99.69151 
L 653.13172 99.69151 
" style="fill:none;stroke:#000000;stroke-linecap:square;stroke-width:1.5;"/>
    <defs>
     <path d="M -3 0 
L 3 0 
M 0 3 
L 0 -3 
" id="mcd4ae40c7b" style="stroke:#000000;"/>
    </defs>
    <g clip-path="url(#pc1f145cb3b)">
     <use style="stroke:#000000;" x="153.26828" xlink:href="#mcd4ae40c7b" y="360.685627"/>
     <use style="stroke:#000000;" x="154.895747" xlink:href="#mcd4ae40c7b" y="329.15422"/>
     <use style="stroke:#000000;" x="156.534275" xlink:href="#mcd4ae40c7b" y="323.988509"/>
     <use style="stroke:#000000;" x="158.161746" xlink:href="#mcd4ae40c7b" y="323.314223"/>
     <use style="stroke:#000000;" x="159.801852" xlink:href="#mcd4ae40c7b" y="311.102803"/>
     <use style="stroke:#000000;" x="161.492524" xlink:href="#mcd4ae40c7b" y="299.548524"/>
     <use style="stroke:#000000;" x="163.119991" xlink:href="#mcd4ae40c7b" y="284.537106"/>
     <use style="stroke:#000000;" x="164.747462" xlink:href="#mcd4ae40c7b" y="282.159965"/>
     <use style="stroke:#000000;" x="166.35913" xlink:href="#mcd4ae40c7b" y="268.097116"/>
     <use style="stroke:#000000;" x="167.988175" xlink:href="#mcd4ae40c7b" y="261.491406"/>
     <use style="stroke:#000000;" x="169.615646" xlink:href="#mcd4ae40c7b" y="252.697125"/>
     <use style="stroke:#000000;" x="171.243113" xlink:href="#mcd4ae40c7b" y="233.982853"/>
     <use style="stroke:#000000;" x="172.87058" xlink:href="#mcd4ae40c7b" y="212.708581"/>
     <use style="stroke:#000000;" x="174.498051" xlink:href="#mcd4ae40c7b" y="160.754329"/>
     <use style="stroke:#000000;" x="176.141318" xlink:href="#mcd4ae40c7b" y="109.022934"/>
     <use style="stroke:#000000;" x="177.768785" xlink:href="#mcd4ae40c7b" y="120.760068"/>
     <use style="stroke:#000000;" x="179.412055" xlink:href="#mcd4ae40c7b" y="120.760068"/>
     <use style="stroke:#000000;" x="181.039522" xlink:href="#mcd4ae40c7b" y="120.537211"/>
     <use style="stroke:#000000;" x="182.673311" xlink:href="#mcd4ae40c7b" y="120.537211"/>
     <use style="stroke:#000000;" x="184.300782" xlink:href="#mcd4ae40c7b" y="120.537211"/>
     <use style="stroke:#000000;" x="185.92667" xlink:href="#mcd4ae40c7b" y="120.502926"/>
     <use style="stroke:#000000;" x="187.554137" xlink:href="#mcd4ae40c7b" y="120.491497"/>
     <use style="stroke:#000000;" x="189.246388" xlink:href="#mcd4ae40c7b" y="119.297212"/>
     <use style="stroke:#000000;" x="190.96866" xlink:href="#mcd4ae40c7b" y="119.297212"/>
     <use style="stroke:#000000;" x="192.724113" xlink:href="#mcd4ae40c7b" y="119.297212"/>
     <use style="stroke:#000000;" x="194.462188" xlink:href="#mcd4ae40c7b" y="119.297212"/>
     <use style="stroke:#000000;" x="196.105455" xlink:href="#mcd4ae40c7b" y="119.297212"/>
     <use style="stroke:#000000;" x="197.732925" xlink:href="#mcd4ae40c7b" y="119.297212"/>
     <use style="stroke:#000000;" x="199.368292" xlink:href="#mcd4ae40c7b" y="119.297212"/>
     <use style="stroke:#000000;" x="201.02578" xlink:href="#mcd4ae40c7b" y="119.297212"/>
     <use style="stroke:#000000;" x="202.672211" xlink:href="#mcd4ae40c7b" y="119.297212"/>
     <use style="stroke:#000000;" x="204.299678" xlink:href="#mcd4ae40c7b" y="119.297212"/>
     <use style="stroke:#000000;" x="205.927149" xlink:href="#mcd4ae40c7b" y="119.297212"/>
     <use style="stroke:#000000;" x="207.554616" xlink:href="#mcd4ae40c7b" y="119.297212"/>
     <use style="stroke:#000000;" x="209.197886" xlink:href="#mcd4ae40c7b" y="119.297212"/>
     <use style="stroke:#000000;" x="210.825353" xlink:href="#mcd4ae40c7b" y="119.297212"/>
     <use style="stroke:#000000;" x="212.45756" xlink:href="#mcd4ae40c7b" y="119.297212"/>
     <use style="stroke:#000000;" x="214.072388" xlink:href="#mcd4ae40c7b" y="119.297212"/>
     <use style="stroke:#000000;" x="215.699859" xlink:href="#mcd4ae40c7b" y="119.297212"/>
     <use style="stroke:#000000;" x="217.327326" xlink:href="#mcd4ae40c7b" y="119.297212"/>
     <use style="stroke:#000000;" x="219.005356" xlink:href="#mcd4ae40c7b" y="119.297212"/>
     <use style="stroke:#000000;" x="220.621762" xlink:href="#mcd4ae40c7b" y="119.285784"/>
     <use style="stroke:#000000;" x="222.265033" xlink:href="#mcd4ae40c7b" y="119.182927"/>
     <use style="stroke:#000000;" x="223.908303" xlink:href="#mcd4ae40c7b" y="92.914373"/>
     <use style="stroke:#000000;" x="225.55157" xlink:href="#mcd4ae40c7b" y="101.748652"/>
     <use style="stroke:#000000;" x="227.19484" xlink:href="#mcd4ae40c7b" y="100.834367"/>
     <use style="stroke:#000000;" x="228.838107" xlink:href="#mcd4ae40c7b" y="98.914368"/>
     <use style="stroke:#000000;" x="230.481377" xlink:href="#mcd4ae40c7b" y="111.537218"/>
     <use style="stroke:#000000;" x="232.124647" xlink:href="#mcd4ae40c7b" y="108.97722"/>
     <use style="stroke:#000000;" x="233.736315" xlink:href="#mcd4ae40c7b" y="106.360078"/>
     <use style="stroke:#000000;" x="235.363782" xlink:href="#mcd4ae40c7b" y="117.314358"/>
     <use style="stroke:#000000;" x="236.992831" xlink:href="#mcd4ae40c7b" y="117.314358"/>
     <use style="stroke:#000000;" x="238.639258" xlink:href="#mcd4ae40c7b" y="117.314358"/>
     <use style="stroke:#000000;" x="240.269886" xlink:href="#mcd4ae40c7b" y="117.314358"/>
     <use style="stroke:#000000;" x="241.913157" xlink:href="#mcd4ae40c7b" y="117.314358"/>
     <use style="stroke:#000000;" x="243.543784" xlink:href="#mcd4ae40c7b" y="117.314358"/>
     <use style="stroke:#000000;" x="245.171251" xlink:href="#mcd4ae40c7b" y="117.314358"/>
     <use style="stroke:#000000;" x="246.800301" xlink:href="#mcd4ae40c7b" y="117.314358"/>
     <use style="stroke:#000000;" x="248.427768" xlink:href="#mcd4ae40c7b" y="117.314358"/>
     <use style="stroke:#000000;" x="250.055239" xlink:href="#mcd4ae40c7b" y="117.314358"/>
     <use style="stroke:#000000;" x="251.696927" xlink:href="#mcd4ae40c7b" y="117.314358"/>
     <use style="stroke:#000000;" x="253.325976" xlink:href="#mcd4ae40c7b" y="117.314358"/>
     <use style="stroke:#000000;" x="254.959764" xlink:href="#mcd4ae40c7b" y="117.314358"/>
     <use style="stroke:#000000;" x="256.620413" xlink:href="#mcd4ae40c7b" y="117.314358"/>
     <use style="stroke:#000000;" x="258.249462" xlink:href="#mcd4ae40c7b" y="117.314358"/>
     <use style="stroke:#000000;" x="259.892729" xlink:href="#mcd4ae40c7b" y="117.314358"/>
     <use style="stroke:#000000;" x="261.520199" xlink:href="#mcd4ae40c7b" y="117.314358"/>
     <use style="stroke:#000000;" x="263.180848" xlink:href="#mcd4ae40c7b" y="117.314358"/>
     <use style="stroke:#000000;" x="264.808315" xlink:href="#mcd4ae40c7b" y="117.314358"/>
     <use style="stroke:#000000;" x="266.451585" xlink:href="#mcd4ae40c7b" y="117.268643"/>
     <use style="stroke:#000000;" x="268.113816" xlink:href="#mcd4ae40c7b" y="117.268643"/>
     <use style="stroke:#000000;" x="269.741283" xlink:href="#mcd4ae40c7b" y="117.034357"/>
     <use style="stroke:#000000;" x="271.36875" xlink:href="#mcd4ae40c7b" y="117.034357"/>
     <use style="stroke:#000000;" x="273.01202" xlink:href="#mcd4ae40c7b" y="117.034357"/>
     <use style="stroke:#000000;" x="274.639487" xlink:href="#mcd4ae40c7b" y="116.862929"/>
     <use style="stroke:#000000;" x="276.396522" xlink:href="#mcd4ae40c7b" y="116.862929"/>
     <use style="stroke:#000000;" x="278.025572" xlink:href="#mcd4ae40c7b" y="116.857215"/>
     <use style="stroke:#000000;" x="279.653039" xlink:href="#mcd4ae40c7b" y="116.857215"/>
     <use style="stroke:#000000;" x="281.285249" xlink:href="#mcd4ae40c7b" y="116.857215"/>
     <use style="stroke:#000000;" x="283.02332" xlink:href="#mcd4ae40c7b" y="116.857215"/>
     <use style="stroke:#000000;" x="284.66659" xlink:href="#mcd4ae40c7b" y="116.857215"/>
     <use style="stroke:#000000;" x="286.422043" xlink:href="#mcd4ae40c7b" y="116.857215"/>
     <use style="stroke:#000000;" x="288.051093" xlink:href="#mcd4ae40c7b" y="116.857215"/>
     <use style="stroke:#000000;" x="289.67856" xlink:href="#mcd4ae40c7b" y="116.857215"/>
     <use style="stroke:#000000;" x="291.307609" xlink:href="#mcd4ae40c7b" y="116.857215"/>
     <use style="stroke:#000000;" x="293.099404" xlink:href="#mcd4ae40c7b" y="116.857215"/>
     <use style="stroke:#000000;" x="294.725292" xlink:href="#mcd4ae40c7b" y="116.857215"/>
     <use style="stroke:#000000;" x="296.352759" xlink:href="#mcd4ae40c7b" y="116.857215"/>
     <use style="stroke:#000000;" x="297.980227" xlink:href="#mcd4ae40c7b" y="116.857215"/>
     <use style="stroke:#000000;" x="299.615597" xlink:href="#mcd4ae40c7b" y="116.857215"/>
     <use style="stroke:#000000;" x="301.243064" xlink:href="#mcd4ae40c7b" y="116.857215"/>
     <use style="stroke:#000000;" x="302.872113" xlink:href="#mcd4ae40c7b" y="116.857215"/>
     <use style="stroke:#000000;" x="304.499581" xlink:href="#mcd4ae40c7b" y="116.857215"/>
     <use style="stroke:#000000;" x="306.127048" xlink:href="#mcd4ae40c7b" y="116.857215"/>
     <use style="stroke:#000000;" x="307.770318" xlink:href="#mcd4ae40c7b" y="116.857215"/>
     <use style="stroke:#000000;" x="309.408845" xlink:href="#mcd4ae40c7b" y="116.857215"/>
     <use style="stroke:#000000;" x="311.022095" xlink:href="#mcd4ae40c7b" y="116.857215"/>
     <use style="stroke:#000000;" x="312.654301" xlink:href="#mcd4ae40c7b" y="116.857215"/>
     <use style="stroke:#000000;" x="314.281772" xlink:href="#mcd4ae40c7b" y="116.857215"/>
     <use style="stroke:#000000;" x="315.909239" xlink:href="#mcd4ae40c7b" y="116.857215"/>
     <use style="stroke:#000000;" x="317.536706" xlink:href="#mcd4ae40c7b" y="116.857215"/>
     <use style="stroke:#000000;" x="319.179977" xlink:href="#mcd4ae40c7b" y="116.857215"/>
     <use style="stroke:#000000;" x="320.823247" xlink:href="#mcd4ae40c7b" y="116.857215"/>
     <use style="stroke:#000000;" x="322.439654" xlink:href="#mcd4ae40c7b" y="116.857215"/>
     <use style="stroke:#000000;" x="324.184046" xlink:href="#mcd4ae40c7b" y="116.857215"/>
     <use style="stroke:#000000;" x="325.814674" xlink:href="#mcd4ae40c7b" y="116.857215"/>
     <use style="stroke:#000000;" x="327.442141" xlink:href="#mcd4ae40c7b" y="116.857215"/>
     <use style="stroke:#000000;" x="329.085411" xlink:href="#mcd4ae40c7b" y="116.857215"/>
     <use style="stroke:#000000;" x="330.728682" xlink:href="#mcd4ae40c7b" y="116.857215"/>
     <use style="stroke:#000000;" x="332.356149" xlink:href="#mcd4ae40c7b" y="116.857215"/>
     <use style="stroke:#000000;" x="333.967816" xlink:href="#mcd4ae40c7b" y="116.857215"/>
     <use style="stroke:#000000;" x="335.598444" xlink:href="#mcd4ae40c7b" y="116.8515"/>
     <use style="stroke:#000000;" x="337.227493" xlink:href="#mcd4ae40c7b" y="116.8515"/>
     <use style="stroke:#000000;" x="338.839161" xlink:href="#mcd4ae40c7b" y="116.822929"/>
     <use style="stroke:#000000;" x="340.46821" xlink:href="#mcd4ae40c7b" y="116.822929"/>
     <use style="stroke:#000000;" x="342.097256" xlink:href="#mcd4ae40c7b" y="116.822929"/>
     <use style="stroke:#000000;" x="343.729466" xlink:href="#mcd4ae40c7b" y="116.817215"/>
     <use style="stroke:#000000;" x="345.358515" xlink:href="#mcd4ae40c7b" y="116.817215"/>
     <use style="stroke:#000000;" x="346.985982" xlink:href="#mcd4ae40c7b" y="116.817215"/>
     <use style="stroke:#000000;" x="348.613449" xlink:href="#mcd4ae40c7b" y="116.817215"/>
     <use style="stroke:#000000;" x="350.258298" xlink:href="#mcd4ae40c7b" y="116.817215"/>
     <use style="stroke:#000000;" x="351.901568" xlink:href="#mcd4ae40c7b" y="116.817215"/>
     <use style="stroke:#000000;" x="353.671242" xlink:href="#mcd4ae40c7b" y="116.817215"/>
     <use style="stroke:#000000;" x="355.314513" xlink:href="#mcd4ae40c7b" y="116.817215"/>
     <use style="stroke:#000000;" x="356.957779" xlink:href="#mcd4ae40c7b" y="116.817215"/>
     <use style="stroke:#000000;" x="358.58525" xlink:href="#mcd4ae40c7b" y="116.817215"/>
     <use style="stroke:#000000;" x="360.228517" xlink:href="#mcd4ae40c7b" y="116.817215"/>
     <use style="stroke:#000000;" x="361.871787" xlink:href="#mcd4ae40c7b" y="116.817215"/>
     <use style="stroke:#000000;" x="363.515057" xlink:href="#mcd4ae40c7b" y="116.817215"/>
     <use style="stroke:#000000;" x="365.158324" xlink:href="#mcd4ae40c7b" y="116.817215"/>
     <use style="stroke:#000000;" x="366.774731" xlink:href="#mcd4ae40c7b" y="116.817215"/>
     <use style="stroke:#000000;" x="368.408519" xlink:href="#mcd4ae40c7b" y="116.817215"/>
     <use style="stroke:#000000;" x="370.042311" xlink:href="#mcd4ae40c7b" y="116.817215"/>
     <use style="stroke:#000000;" x="371.674517" xlink:href="#mcd4ae40c7b" y="116.817215"/>
     <use style="stroke:#000000;" x="373.294085" xlink:href="#mcd4ae40c7b" y="116.817215"/>
     <use style="stroke:#000000;" x="374.921556" xlink:href="#mcd4ae40c7b" y="116.817215"/>
     <use style="stroke:#000000;" x="376.549023" xlink:href="#mcd4ae40c7b" y="116.817215"/>
     <use style="stroke:#000000;" x="378.178072" xlink:href="#mcd4ae40c7b" y="116.817215"/>
     <use style="stroke:#000000;" x="379.805539" xlink:href="#mcd4ae40c7b" y="116.817215"/>
     <use style="stroke:#000000;" x="381.488308" xlink:href="#mcd4ae40c7b" y="116.817215"/>
     <use style="stroke:#000000;" x="383.166338" xlink:href="#mcd4ae40c7b" y="116.817215"/>
     <use style="stroke:#000000;" x="384.801709" xlink:href="#mcd4ae40c7b" y="116.817215"/>
     <use style="stroke:#000000;" x="386.443397" xlink:href="#mcd4ae40c7b" y="116.817215"/>
     <use style="stroke:#000000;" x="388.077185" xlink:href="#mcd4ae40c7b" y="116.817215"/>
     <use style="stroke:#000000;" x="389.712556" xlink:href="#mcd4ae40c7b" y="116.817215"/>
     <use style="stroke:#000000;" x="391.340023" xlink:href="#mcd4ae40c7b" y="116.817215"/>
     <use style="stroke:#000000;" x="392.969072" xlink:href="#mcd4ae40c7b" y="116.817215"/>
     <use style="stroke:#000000;" x="394.601278" xlink:href="#mcd4ae40c7b" y="116.817215"/>
     <use style="stroke:#000000;" x="396.280891" xlink:href="#mcd4ae40c7b" y="116.817215"/>
     <use style="stroke:#000000;" x="397.909936" xlink:href="#mcd4ae40c7b" y="116.817215"/>
     <use style="stroke:#000000;" x="399.666971" xlink:href="#mcd4ae40c7b" y="116.817215"/>
     <use style="stroke:#000000;" x="401.30866" xlink:href="#mcd4ae40c7b" y="116.817215"/>
     <use style="stroke:#000000;" x="402.939287" xlink:href="#mcd4ae40c7b" y="116.817215"/>
     <use style="stroke:#000000;" x="404.582558" xlink:href="#mcd4ae40c7b" y="116.817215"/>
     <use style="stroke:#000000;" x="406.210025" xlink:href="#mcd4ae40c7b" y="116.817215"/>
     <use style="stroke:#000000;" x="407.839074" xlink:href="#mcd4ae40c7b" y="116.817215"/>
     <use style="stroke:#000000;" x="409.480762" xlink:href="#mcd4ae40c7b" y="116.817215"/>
     <use style="stroke:#000000;" x="411.109811" xlink:href="#mcd4ae40c7b" y="116.817215"/>
     <use style="stroke:#000000;" x="412.738861" xlink:href="#mcd4ae40c7b" y="116.817215"/>
     <use style="stroke:#000000;" x="414.369488" xlink:href="#mcd4ae40c7b" y="116.817215"/>
     <use style="stroke:#000000;" x="415.996955" xlink:href="#mcd4ae40c7b" y="116.817215"/>
     <use style="stroke:#000000;" x="417.629165" xlink:href="#mcd4ae40c7b" y="116.817215"/>
     <use style="stroke:#000000;" x="419.251893" xlink:href="#mcd4ae40c7b" y="116.817215"/>
     <use style="stroke:#000000;" x="420.929923" xlink:href="#mcd4ae40c7b" y="116.817215"/>
     <use style="stroke:#000000;" x="422.588993" xlink:href="#mcd4ae40c7b" y="116.817215"/>
     <use style="stroke:#000000;" x="424.219621" xlink:href="#mcd4ae40c7b" y="116.817215"/>
     <use style="stroke:#000000;" x="425.84867" xlink:href="#mcd4ae40c7b" y="116.817215"/>
     <use style="stroke:#000000;" x="427.47772" xlink:href="#mcd4ae40c7b" y="116.817215"/>
     <use style="stroke:#000000;" x="429.119408" xlink:href="#mcd4ae40c7b" y="116.817215"/>
     <use style="stroke:#000000;" x="430.757935" xlink:href="#mcd4ae40c7b" y="116.817215"/>
     <use style="stroke:#000000;" x="432.385402" xlink:href="#mcd4ae40c7b" y="116.782928"/>
     <use style="stroke:#000000;" x="434.012873" xlink:href="#mcd4ae40c7b" y="112.651503"/>
     <use style="stroke:#000000;" x="435.64034" xlink:href="#mcd4ae40c7b" y="103.348651"/>
     <use style="stroke:#000000;" x="437.267807" xlink:href="#mcd4ae40c7b" y="99.788654"/>
     <use style="stroke:#000000;" x="438.911078" xlink:href="#mcd4ae40c7b" y="99.640082"/>
     <use style="stroke:#000000;" x="440.585947" xlink:href="#mcd4ae40c7b" y="99.640082"/>
     <use style="stroke:#000000;" x="442.245017" xlink:href="#mcd4ae40c7b" y="99.62294"/>
     <use style="stroke:#000000;" x="443.942007" xlink:href="#mcd4ae40c7b" y="99.62294"/>
     <use style="stroke:#000000;" x="445.572635" xlink:href="#mcd4ae40c7b" y="99.62294"/>
     <use style="stroke:#000000;" x="447.204845" xlink:href="#mcd4ae40c7b" y="99.62294"/>
     <use style="stroke:#000000;" x="448.840215" xlink:href="#mcd4ae40c7b" y="99.62294"/>
     <use style="stroke:#000000;" x="450.470843" xlink:href="#mcd4ae40c7b" y="99.62294"/>
     <use style="stroke:#000000;" x="452.10621" xlink:href="#mcd4ae40c7b" y="99.62294"/>
     <use style="stroke:#000000;" x="453.733681" xlink:href="#mcd4ae40c7b" y="99.62294"/>
     <use style="stroke:#000000;" x="455.362726" xlink:href="#mcd4ae40c7b" y="99.62294"/>
     <use style="stroke:#000000;" x="457.08658" xlink:href="#mcd4ae40c7b" y="99.62294"/>
     <use style="stroke:#000000;" x="458.777249" xlink:href="#mcd4ae40c7b" y="99.62294"/>
     <use style="stroke:#000000;" x="460.467922" xlink:href="#mcd4ae40c7b" y="99.62294"/>
     <use style="stroke:#000000;" x="462.142791" xlink:href="#mcd4ae40c7b" y="99.62294"/>
     <use style="stroke:#000000;" x="463.833464" xlink:href="#mcd4ae40c7b" y="99.62294"/>
     <use style="stroke:#000000;" x="465.464092" xlink:href="#mcd4ae40c7b" y="99.62294"/>
     <use style="stroke:#000000;" x="467.099458" xlink:href="#mcd4ae40c7b" y="99.62294"/>
     <use style="stroke:#000000;" x="468.859654" xlink:href="#mcd4ae40c7b" y="99.62294"/>
     <use style="stroke:#000000;" x="470.611947" xlink:href="#mcd4ae40c7b" y="99.62294"/>
     <use style="stroke:#000000;" x="472.242574" xlink:href="#mcd4ae40c7b" y="99.62294"/>
     <use style="stroke:#000000;" x="473.874784" xlink:href="#mcd4ae40c7b" y="99.62294"/>
     <use style="stroke:#000000;" x="475.633398" xlink:href="#mcd4ae40c7b" y="99.62294"/>
     <use style="stroke:#000000;" x="477.357248" xlink:href="#mcd4ae40c7b" y="99.62294"/>
     <use style="stroke:#000000;" x="478.986297" xlink:href="#mcd4ae40c7b" y="99.62294"/>
     <use style="stroke:#000000;" x="480.627985" xlink:href="#mcd4ae40c7b" y="99.62294"/>
     <use style="stroke:#000000;" x="482.271256" xlink:href="#mcd4ae40c7b" y="99.62294"/>
     <use style="stroke:#000000;" x="483.903466" xlink:href="#mcd4ae40c7b" y="99.62294"/>
     <use style="stroke:#000000;" x="485.535672" xlink:href="#mcd4ae40c7b" y="99.62294"/>
     <use style="stroke:#000000;" x="487.167882" xlink:href="#mcd4ae40c7b" y="99.62294"/>
     <use style="stroke:#000000;" x="488.800088" xlink:href="#mcd4ae40c7b" y="99.62294"/>
     <use style="stroke:#000000;" x="490.433876" xlink:href="#mcd4ae40c7b" y="99.62294"/>
     <use style="stroke:#000000;" x="492.086629" xlink:href="#mcd4ae40c7b" y="99.62294"/>
     <use style="stroke:#000000;" x="493.717256" xlink:href="#mcd4ae40c7b" y="99.62294"/>
     <use style="stroke:#000000;" x="495.354206" xlink:href="#mcd4ae40c7b" y="99.62294"/>
     <use style="stroke:#000000;" x="496.981673" xlink:href="#mcd4ae40c7b" y="99.62294"/>
     <use style="stroke:#000000;" x="498.618622" xlink:href="#mcd4ae40c7b" y="99.62294"/>
     <use style="stroke:#000000;" x="500.246089" xlink:href="#mcd4ae40c7b" y="99.62294"/>
     <use style="stroke:#000000;" x="501.864078" xlink:href="#mcd4ae40c7b" y="99.62294"/>
     <use style="stroke:#000000;" x="503.491545" xlink:href="#mcd4ae40c7b" y="99.62294"/>
     <use style="stroke:#000000;" x="505.119015" xlink:href="#mcd4ae40c7b" y="99.62294"/>
     <use style="stroke:#000000;" x="506.748061" xlink:href="#mcd4ae40c7b" y="99.62294"/>
     <use style="stroke:#000000;" x="508.383432" xlink:href="#mcd4ae40c7b" y="99.62294"/>
     <use style="stroke:#000000;" x="510.012477" xlink:href="#mcd4ae40c7b" y="99.62294"/>
     <use style="stroke:#000000;" x="511.644687" xlink:href="#mcd4ae40c7b" y="99.62294"/>
     <use style="stroke:#000000;" x="513.276897" xlink:href="#mcd4ae40c7b" y="99.62294"/>
     <use style="stroke:#000000;" x="514.909103" xlink:href="#mcd4ae40c7b" y="99.62294"/>
     <use style="stroke:#000000;" x="516.547634" xlink:href="#mcd4ae40c7b" y="99.62294"/>
     <use style="stroke:#000000;" x="518.183001" xlink:href="#mcd4ae40c7b" y="99.62294"/>
     <use style="stroke:#000000;" x="519.812051" xlink:href="#mcd4ae40c7b" y="99.62294"/>
     <use style="stroke:#000000;" x="521.428457" xlink:href="#mcd4ae40c7b" y="99.62294"/>
     <use style="stroke:#000000;" x="523.071728" xlink:href="#mcd4ae40c7b" y="99.62294"/>
     <use style="stroke:#000000;" x="524.714994" xlink:href="#mcd4ae40c7b" y="99.62294"/>
     <use style="stroke:#000000;" x="526.342465" xlink:href="#mcd4ae40c7b" y="99.62294"/>
     <use style="stroke:#000000;" x="527.976253" xlink:href="#mcd4ae40c7b" y="99.62294"/>
     <use style="stroke:#000000;" x="529.60846" xlink:href="#mcd4ae40c7b" y="99.62294"/>
     <use style="stroke:#000000;" x="531.221709" xlink:href="#mcd4ae40c7b" y="99.62294"/>
     <use style="stroke:#000000;" x="532.864976" xlink:href="#mcd4ae40c7b" y="99.62294"/>
     <use style="stroke:#000000;" x="534.498764" xlink:href="#mcd4ae40c7b" y="99.62294"/>
     <use style="stroke:#000000;" x="536.130974" xlink:href="#mcd4ae40c7b" y="99.62294"/>
     <use style="stroke:#000000;" x="537.763184" xlink:href="#mcd4ae40c7b" y="99.62294"/>
     <use style="stroke:#000000;" x="539.39539" xlink:href="#mcd4ae40c7b" y="99.62294"/>
     <use style="stroke:#000000;" x="541.022861" xlink:href="#mcd4ae40c7b" y="99.62294"/>
     <use style="stroke:#000000;" x="542.655067" xlink:href="#mcd4ae40c7b" y="99.62294"/>
     <use style="stroke:#000000;" x="544.285695" xlink:href="#mcd4ae40c7b" y="99.62294"/>
     <use style="stroke:#000000;" x="545.914744" xlink:href="#mcd4ae40c7b" y="99.62294"/>
     <use style="stroke:#000000;" x="547.545372" xlink:href="#mcd4ae40c7b" y="99.62294"/>
     <use style="stroke:#000000;" x="549.172843" xlink:href="#mcd4ae40c7b" y="99.62294"/>
     <use style="stroke:#000000;" x="550.926714" xlink:href="#mcd4ae40c7b" y="99.62294"/>
     <use style="stroke:#000000;" x="552.569984" xlink:href="#mcd4ae40c7b" y="99.62294"/>
     <use style="stroke:#000000;" x="554.20219" xlink:href="#mcd4ae40c7b" y="99.62294"/>
     <use style="stroke:#000000;" x="555.835982" xlink:href="#mcd4ae40c7b" y="99.62294"/>
     <use style="stroke:#000000;" x="557.46661" xlink:href="#mcd4ae40c7b" y="99.62294"/>
     <use style="stroke:#000000;" x="559.097238" xlink:href="#mcd4ae40c7b" y="99.62294"/>
     <use style="stroke:#000000;" x="560.738926" xlink:href="#mcd4ae40c7b" y="99.62294"/>
     <use style="stroke:#000000;" x="562.374297" xlink:href="#mcd4ae40c7b" y="99.62294"/>
     <use style="stroke:#000000;" x="564.004924" xlink:href="#mcd4ae40c7b" y="99.62294"/>
     <use style="stroke:#000000;" x="565.638713" xlink:href="#mcd4ae40c7b" y="99.62294"/>
     <use style="stroke:#000000;" x="567.267758" xlink:href="#mcd4ae40c7b" y="99.62294"/>
     <use style="stroke:#000000;" x="568.934732" xlink:href="#mcd4ae40c7b" y="99.62294"/>
     <use style="stroke:#000000;" x="570.565359" xlink:href="#mcd4ae40c7b" y="99.62294"/>
     <use style="stroke:#000000;" x="572.195987" xlink:href="#mcd4ae40c7b" y="99.62294"/>
     <use style="stroke:#000000;" x="573.834515" xlink:href="#mcd4ae40c7b" y="99.62294"/>
     <use style="stroke:#000000;" x="575.465142" xlink:href="#mcd4ae40c7b" y="99.62294"/>
     <use style="stroke:#000000;" x="577.108413" xlink:href="#mcd4ae40c7b" y="99.62294"/>
     <use style="stroke:#000000;" x="578.751683" xlink:href="#mcd4ae40c7b" y="99.62294"/>
     <use style="stroke:#000000;" x="580.37915" xlink:href="#mcd4ae40c7b" y="99.62294"/>
     <use style="stroke:#000000;" x="582.02242" xlink:href="#mcd4ae40c7b" y="99.62294"/>
     <use style="stroke:#000000;" x="583.649887" xlink:href="#mcd4ae40c7b" y="99.62294"/>
     <use style="stroke:#000000;" x="585.403762" xlink:href="#mcd4ae40c7b" y="99.62294"/>
     <use style="stroke:#000000;" x="587.089692" xlink:href="#mcd4ae40c7b" y="99.62294"/>
     <use style="stroke:#000000;" x="588.751922" xlink:href="#mcd4ae40c7b" y="99.62294"/>
     <use style="stroke:#000000;" x="590.456812" xlink:href="#mcd4ae40c7b" y="99.62294"/>
     <use style="stroke:#000000;" x="592.115882" xlink:href="#mcd4ae40c7b" y="99.62294"/>
     <use style="stroke:#000000;" x="593.743349" xlink:href="#mcd4ae40c7b" y="99.62294"/>
     <use style="stroke:#000000;" x="595.38662" xlink:href="#mcd4ae40c7b" y="99.62294"/>
     <use style="stroke:#000000;" x="597.014087" xlink:href="#mcd4ae40c7b" y="99.62294"/>
     <use style="stroke:#000000;" x="598.682639" xlink:href="#mcd4ae40c7b" y="99.62294"/>
     <use style="stroke:#000000;" x="600.310106" xlink:href="#mcd4ae40c7b" y="99.62294"/>
     <use style="stroke:#000000;" x="602.005517" xlink:href="#mcd4ae40c7b" y="99.62294"/>
     <use style="stroke:#000000;" x="603.634567" xlink:href="#mcd4ae40c7b" y="99.62294"/>
     <use style="stroke:#000000;" x="605.295215" xlink:href="#mcd4ae40c7b" y="99.62294"/>
     <use style="stroke:#000000;" x="606.922682" xlink:href="#mcd4ae40c7b" y="99.62294"/>
     <use style="stroke:#000000;" x="608.676557" xlink:href="#mcd4ae40c7b" y="99.62294"/>
     <use style="stroke:#000000;" x="610.304024" xlink:href="#mcd4ae40c7b" y="99.62294"/>
     <use style="stroke:#000000;" x="611.963093" xlink:href="#mcd4ae40c7b" y="99.62294"/>
     <use style="stroke:#000000;" x="613.702747" xlink:href="#mcd4ae40c7b" y="99.62294"/>
     <use style="stroke:#000000;" x="615.382359" xlink:href="#mcd4ae40c7b" y="99.62294"/>
     <use style="stroke:#000000;" x="617.008244" xlink:href="#mcd4ae40c7b" y="99.62294"/>
     <use style="stroke:#000000;" x="618.638876" xlink:href="#mcd4ae40c7b" y="99.62294"/>
     <use style="stroke:#000000;" x="620.266343" xlink:href="#mcd4ae40c7b" y="99.62294"/>
     <use style="stroke:#000000;" x="621.898553" xlink:href="#mcd4ae40c7b" y="99.62294"/>
     <use style="stroke:#000000;" x="623.533919" xlink:href="#mcd4ae40c7b" y="99.62294"/>
     <use style="stroke:#000000;" x="625.166129" xlink:href="#mcd4ae40c7b" y="99.62294"/>
     <use style="stroke:#000000;" x="626.806235" xlink:href="#mcd4ae40c7b" y="99.62294"/>
     <use style="stroke:#000000;" x="628.534828" xlink:href="#mcd4ae40c7b" y="99.69151"/>
     <use style="stroke:#000000;" x="630.163878" xlink:href="#mcd4ae40c7b" y="99.640082"/>
     <use style="stroke:#000000;" x="631.796088" xlink:href="#mcd4ae40c7b" y="99.640082"/>
     <use style="stroke:#000000;" x="633.434615" xlink:href="#mcd4ae40c7b" y="99.640082"/>
     <use style="stroke:#000000;" x="635.066825" xlink:href="#mcd4ae40c7b" y="99.640082"/>
     <use style="stroke:#000000;" x="636.706931" xlink:href="#mcd4ae40c7b" y="99.640082"/>
     <use style="stroke:#000000;" x="638.399182" xlink:href="#mcd4ae40c7b" y="99.640082"/>
     <use style="stroke:#000000;" x="640.02981" xlink:href="#mcd4ae40c7b" y="99.640082"/>
     <use style="stroke:#000000;" x="641.66518" xlink:href="#mcd4ae40c7b" y="99.640082"/>
     <use style="stroke:#000000;" x="643.30529" xlink:href="#mcd4ae40c7b" y="99.634368"/>
     <use style="stroke:#000000;" x="644.937496" xlink:href="#mcd4ae40c7b" y="99.634368"/>
     <use style="stroke:#000000;" x="646.572867" xlink:href="#mcd4ae40c7b" y="99.634368"/>
     <use style="stroke:#000000;" x="648.212973" xlink:href="#mcd4ae40c7b" y="99.634368"/>
     <use style="stroke:#000000;" x="649.842022" xlink:href="#mcd4ae40c7b" y="99.634368"/>
     <use style="stroke:#000000;" x="651.471071" xlink:href="#mcd4ae40c7b" y="99.628654"/>
     <use style="stroke:#000000;" x="653.13172" xlink:href="#mcd4ae40c7b" y="99.69151"/>
    </g>
   </g>
   <g id="patch_3">
    <path d="M 100.8 388.8 
L 100.8 64.8 
" style="fill:none;stroke:#000000;stroke-linecap:square;stroke-linejoin:miter;stroke-width:0.8;"/>
   </g>
   <g id="patch_4">
    <path d="M 705.6 388.8 
L 705.6 64.8 
" style="fill:none;stroke:#000000;stroke-linecap:square;stroke-linejoin:miter;stroke-width:0.8;"/>
   </g>
   <g id="patch_5">
    <path d="M 100.8 388.8 
L 705.6 388.8 
" style="fill:none;stroke:#000000;stroke-linecap:square;stroke-linejoin:miter;stroke-width:0.8;"/>
   </g>
   <g id="patch_6">
    <path d="M 100.8 64.8 
L 705.6 64.8 
" style="fill:none;stroke:#000000;stroke-linecap:square;stroke-linejoin:miter;stroke-width:0.8;"/>
   </g>
   <g id="text_19">
    <!-- d:\dropbox\hobby\modding\programs\github\my_repos\antipetros_discord_bot_new\.venv\scripts\python.exe d:\Dropbox\hobby\Modding\Programs\Github\My_Repos\Antipetros_Discord_Bot_new\antipetros_discordbot\__main__.py -->
    <g transform="translate(-283.060312 45.028875)scale(0.12 -0.12)">
     <defs>
      <path d="M 11.71875 12.40625 
L 22.015625 12.40625 
L 22.015625 0 
L 11.71875 0 
z
M 11.71875 51.703125 
L 22.015625 51.703125 
L 22.015625 39.3125 
L 11.71875 39.3125 
z
" id="DejaVuSans-58"/>
      <path d="M 8.296875 72.90625 
L 33.6875 -9.28125 
L 25.390625 -9.28125 
L 0 72.90625 
z
" id="DejaVuSans-92"/>
      <path d="M 18.109375 8.203125 
L 18.109375 -20.796875 
L 9.078125 -20.796875 
L 9.078125 54.6875 
L 18.109375 54.6875 
L 18.109375 46.390625 
Q 20.953125 51.265625 25.265625 53.625 
Q 29.59375 56 35.59375 56 
Q 45.5625 56 51.78125 48.09375 
Q 58.015625 40.1875 58.015625 27.296875 
Q 58.015625 14.40625 51.78125 6.484375 
Q 45.5625 -1.421875 35.59375 -1.421875 
Q 29.59375 -1.421875 25.265625 0.953125 
Q 20.953125 3.328125 18.109375 8.203125 
z
M 48.6875 27.296875 
Q 48.6875 37.203125 44.609375 42.84375 
Q 40.53125 48.484375 33.40625 48.484375 
Q 26.265625 48.484375 22.1875 42.84375 
Q 18.109375 37.203125 18.109375 27.296875 
Q 18.109375 17.390625 22.1875 11.75 
Q 26.265625 6.109375 33.40625 6.109375 
Q 40.53125 6.109375 44.609375 11.75 
Q 48.6875 17.390625 48.6875 27.296875 
z
" id="DejaVuSans-112"/>
      <path d="M 48.6875 27.296875 
Q 48.6875 37.203125 44.609375 42.84375 
Q 40.53125 48.484375 33.40625 48.484375 
Q 26.265625 48.484375 22.1875 42.84375 
Q 18.109375 37.203125 18.109375 27.296875 
Q 18.109375 17.390625 22.1875 11.75 
Q 26.265625 6.109375 33.40625 6.109375 
Q 40.53125 6.109375 44.609375 11.75 
Q 48.6875 17.390625 48.6875 27.296875 
z
M 18.109375 46.390625 
Q 20.953125 51.265625 25.265625 53.625 
Q 29.59375 56 35.59375 56 
Q 45.5625 56 51.78125 48.09375 
Q 58.015625 40.1875 58.015625 27.296875 
Q 58.015625 14.40625 51.78125 6.484375 
Q 45.5625 -1.421875 35.59375 -1.421875 
Q 29.59375 -1.421875 25.265625 0.953125 
Q 20.953125 3.328125 18.109375 8.203125 
L 18.109375 0 
L 9.078125 0 
L 9.078125 75.984375 
L 18.109375 75.984375 
z
" id="DejaVuSans-98"/>
      <path d="M 54.890625 54.6875 
L 35.109375 28.078125 
L 55.90625 0 
L 45.3125 0 
L 29.390625 21.484375 
L 13.484375 0 
L 2.875 0 
L 24.125 28.609375 
L 4.6875 54.6875 
L 15.28125 54.6875 
L 29.78125 35.203125 
L 44.28125 54.6875 
z
" id="DejaVuSans-120"/>
      <path d="M 54.890625 33.015625 
L 54.890625 0 
L 45.90625 0 
L 45.90625 32.71875 
Q 45.90625 40.484375 42.875 44.328125 
Q 39.84375 48.1875 33.796875 48.1875 
Q 26.515625 48.1875 22.3125 43.546875 
Q 18.109375 38.921875 18.109375 30.90625 
L 18.109375 0 
L 9.078125 0 
L 9.078125 75.984375 
L 18.109375 75.984375 
L 18.109375 46.1875 
Q 21.34375 51.125 25.703125 53.5625 
Q 30.078125 56 35.796875 56 
Q 45.21875 56 50.046875 50.171875 
Q 54.890625 44.34375 54.890625 33.015625 
z
" id="DejaVuSans-104"/>
      <path d="M 45.40625 27.984375 
Q 45.40625 37.75 41.375 43.109375 
Q 37.359375 48.484375 30.078125 48.484375 
Q 22.859375 48.484375 18.828125 43.109375 
Q 14.796875 37.75 14.796875 27.984375 
Q 14.796875 18.265625 18.828125 12.890625 
Q 22.859375 7.515625 30.078125 7.515625 
Q 37.359375 7.515625 41.375 12.890625 
Q 45.40625 18.265625 45.40625 27.984375 
z
M 54.390625 6.78125 
Q 54.390625 -7.171875 48.1875 -13.984375 
Q 42 -20.796875 29.203125 -20.796875 
Q 24.46875 -20.796875 20.265625 -20.09375 
Q 16.0625 -19.390625 12.109375 -17.921875 
L 12.109375 -9.1875 
Q 16.0625 -11.328125 19.921875 -12.34375 
Q 23.78125 -13.375 27.78125 -13.375 
Q 36.625 -13.375 41.015625 -8.765625 
Q 45.40625 -4.15625 45.40625 5.171875 
L 45.40625 9.625 
Q 42.625 4.78125 38.28125 2.390625 
Q 33.9375 0 27.875 0 
Q 17.828125 0 11.671875 7.65625 
Q 5.515625 15.328125 5.515625 27.984375 
Q 5.515625 40.671875 11.671875 48.328125 
Q 17.828125 56 27.875 56 
Q 33.9375 56 38.28125 53.609375 
Q 42.625 51.21875 45.40625 46.390625 
L 45.40625 54.6875 
L 54.390625 54.6875 
z
" id="DejaVuSans-103"/>
      <path d="M 34.28125 27.484375 
Q 23.390625 27.484375 19.1875 25 
Q 14.984375 22.515625 14.984375 16.5 
Q 14.984375 11.71875 18.140625 8.90625 
Q 21.296875 6.109375 26.703125 6.109375 
Q 34.1875 6.109375 38.703125 11.40625 
Q 43.21875 16.703125 43.21875 25.484375 
L 43.21875 27.484375 
z
M 52.203125 31.203125 
L 52.203125 0 
L 43.21875 0 
L 43.21875 8.296875 
Q 40.140625 3.328125 35.546875 0.953125 
Q 30.953125 -1.421875 24.3125 -1.421875 
Q 15.921875 -1.421875 10.953125 3.296875 
Q 6 8.015625 6 15.921875 
Q 6 25.140625 12.171875 29.828125 
Q 18.359375 34.515625 30.609375 34.515625 
L 43.21875 34.515625 
L 43.21875 35.40625 
Q 43.21875 41.609375 39.140625 45 
Q 35.0625 48.390625 27.6875 48.390625 
Q 23 48.390625 18.546875 47.265625 
Q 14.109375 46.140625 10.015625 43.890625 
L 10.015625 52.203125 
Q 14.9375 54.109375 19.578125 55.046875 
Q 24.21875 56 28.609375 56 
Q 40.484375 56 46.34375 49.84375 
Q 52.203125 43.703125 52.203125 31.203125 
z
" id="DejaVuSans-97"/>
      <path d="M 50.984375 -16.609375 
L 50.984375 -23.578125 
L -0.984375 -23.578125 
L -0.984375 -16.609375 
z
" id="DejaVuSans-95"/>
      <path d="M 4.203125 54.6875 
L 13.1875 54.6875 
L 24.421875 12.015625 
L 35.59375 54.6875 
L 46.1875 54.6875 
L 57.421875 12.015625 
L 68.609375 54.6875 
L 77.59375 54.6875 
L 63.28125 0 
L 52.6875 0 
L 40.921875 44.828125 
L 29.109375 0 
L 18.5 0 
z
" id="DejaVuSans-119"/>
      <path d="M 10.6875 12.40625 
L 21 12.40625 
L 21 0 
L 10.6875 0 
z
" id="DejaVuSans-46"/>
      <path d="M 2.984375 54.6875 
L 12.5 54.6875 
L 29.59375 8.796875 
L 46.6875 54.6875 
L 56.203125 54.6875 
L 35.6875 0 
L 23.484375 0 
z
" id="DejaVuSans-118"/>
      <path d="M 19.671875 64.796875 
L 19.671875 8.109375 
L 31.59375 8.109375 
Q 46.6875 8.109375 53.6875 14.9375 
Q 60.6875 21.78125 60.6875 36.53125 
Q 60.6875 51.171875 53.6875 57.984375 
Q 46.6875 64.796875 31.59375 64.796875 
z
M 9.8125 72.90625 
L 30.078125 72.90625 
Q 51.265625 72.90625 61.171875 64.09375 
Q 71.09375 55.28125 71.09375 36.53125 
Q 71.09375 17.671875 61.125 8.828125 
Q 51.171875 0 30.078125 0 
L 9.8125 0 
z
" id="DejaVuSans-68"/>
      <path d="M 19.671875 64.796875 
L 19.671875 37.40625 
L 32.078125 37.40625 
Q 38.96875 37.40625 42.71875 40.96875 
Q 46.484375 44.53125 46.484375 51.125 
Q 46.484375 57.671875 42.71875 61.234375 
Q 38.96875 64.796875 32.078125 64.796875 
z
M 9.8125 72.90625 
L 32.078125 72.90625 
Q 44.34375 72.90625 50.609375 67.359375 
Q 56.890625 61.8125 56.890625 51.125 
Q 56.890625 40.328125 50.609375 34.8125 
Q 44.34375 29.296875 32.078125 29.296875 
L 19.671875 29.296875 
L 19.671875 0 
L 9.8125 0 
z
" id="DejaVuSans-80"/>
      <path d="M 59.515625 10.40625 
L 59.515625 29.984375 
L 43.40625 29.984375 
L 43.40625 38.09375 
L 69.28125 38.09375 
L 69.28125 6.78125 
Q 63.578125 2.734375 56.6875 0.65625 
Q 49.8125 -1.421875 42 -1.421875 
Q 24.90625 -1.421875 15.25 8.5625 
Q 5.609375 18.5625 5.609375 36.375 
Q 5.609375 54.25 15.25 64.234375 
Q 24.90625 74.21875 42 74.21875 
Q 49.125 74.21875 55.546875 72.453125 
Q 61.96875 70.703125 67.390625 67.28125 
L 67.390625 56.78125 
Q 61.921875 61.421875 55.765625 63.765625 
Q 49.609375 66.109375 42.828125 66.109375 
Q 29.4375 66.109375 22.71875 58.640625 
Q 16.015625 51.171875 16.015625 36.375 
Q 16.015625 21.625 22.71875 14.15625 
Q 29.4375 6.6875 42.828125 6.6875 
Q 48.046875 6.6875 52.140625 7.59375 
Q 56.25 8.5 59.515625 10.40625 
z
" id="DejaVuSans-71"/>
      <path d="M 44.390625 34.1875 
Q 47.5625 33.109375 50.5625 29.59375 
Q 53.5625 26.078125 56.59375 19.921875 
L 66.609375 0 
L 56 0 
L 46.6875 18.703125 
Q 43.0625 26.03125 39.671875 28.421875 
Q 36.28125 30.8125 30.421875 30.8125 
L 19.671875 30.8125 
L 19.671875 0 
L 9.8125 0 
L 9.8125 72.90625 
L 32.078125 72.90625 
Q 44.578125 72.90625 50.734375 67.671875 
Q 56.890625 62.453125 56.890625 51.90625 
Q 56.890625 45.015625 53.6875 40.46875 
Q 50.484375 35.9375 44.390625 34.1875 
z
M 19.671875 64.796875 
L 19.671875 38.921875 
L 32.078125 38.921875 
Q 39.203125 38.921875 42.84375 42.21875 
Q 46.484375 45.515625 46.484375 51.90625 
Q 46.484375 58.296875 42.84375 61.546875 
Q 39.203125 64.796875 32.078125 64.796875 
z
" id="DejaVuSans-82"/>
      <path d="M 34.1875 63.1875 
L 20.796875 26.90625 
L 47.609375 26.90625 
z
M 28.609375 72.90625 
L 39.796875 72.90625 
L 67.578125 0 
L 57.328125 0 
L 50.6875 18.703125 
L 17.828125 18.703125 
L 11.1875 0 
L 0.78125 0 
z
" id="DejaVuSans-65"/>
     </defs>
     <use xlink:href="#DejaVuSans-100"/>
     <use x="63.476562" xlink:href="#DejaVuSans-58"/>
     <use x="97.167969" xlink:href="#DejaVuSans-92"/>
     <use x="130.859375" xlink:href="#DejaVuSans-100"/>
     <use x="194.335938" xlink:href="#DejaVuSans-114"/>
     <use x="233.199219" xlink:href="#DejaVuSans-111"/>
     <use x="294.380859" xlink:href="#DejaVuSans-112"/>
     <use x="357.857422" xlink:href="#DejaVuSans-98"/>
     <use x="421.333984" xlink:href="#DejaVuSans-111"/>
     <use x="479.390625" xlink:href="#DejaVuSans-120"/>
     <use x="538.570312" xlink:href="#DejaVuSans-92"/>
     <use x="572.261719" xlink:href="#DejaVuSans-104"/>
     <use x="635.640625" xlink:href="#DejaVuSans-111"/>
     <use x="696.822266" xlink:href="#DejaVuSans-98"/>
     <use x="760.298828" xlink:href="#DejaVuSans-98"/>
     <use x="823.775391" xlink:href="#DejaVuSans-121"/>
     <use x="882.955078" xlink:href="#DejaVuSans-92"/>
     <use x="916.646484" xlink:href="#DejaVuSans-109"/>
     <use x="1014.058594" xlink:href="#DejaVuSans-111"/>
     <use x="1075.240234" xlink:href="#DejaVuSans-100"/>
     <use x="1138.716797" xlink:href="#DejaVuSans-100"/>
     <use x="1202.193359" xlink:href="#DejaVuSans-105"/>
     <use x="1229.976562" xlink:href="#DejaVuSans-110"/>
     <use x="1293.355469" xlink:href="#DejaVuSans-103"/>
     <use x="1356.832031" xlink:href="#DejaVuSans-92"/>
     <use x="1390.523438" xlink:href="#DejaVuSans-112"/>
     <use x="1454" xlink:href="#DejaVuSans-114"/>
     <use x="1492.863281" xlink:href="#DejaVuSans-111"/>
     <use x="1554.044922" xlink:href="#DejaVuSans-103"/>
     <use x="1617.521484" xlink:href="#DejaVuSans-114"/>
     <use x="1658.634766" xlink:href="#DejaVuSans-97"/>
     <use x="1719.914062" xlink:href="#DejaVuSans-109"/>
     <use x="1817.326172" xlink:href="#DejaVuSans-115"/>
     <use x="1869.425781" xlink:href="#DejaVuSans-92"/>
     <use x="1903.117188" xlink:href="#DejaVuSans-103"/>
     <use x="1966.59375" xlink:href="#DejaVuSans-105"/>
     <use x="1994.376953" xlink:href="#DejaVuSans-116"/>
     <use x="2033.585938" xlink:href="#DejaVuSans-104"/>
     <use x="2096.964844" xlink:href="#DejaVuSans-117"/>
     <use x="2160.34375" xlink:href="#DejaVuSans-98"/>
     <use x="2223.820312" xlink:href="#DejaVuSans-92"/>
     <use x="2257.511719" xlink:href="#DejaVuSans-109"/>
     <use x="2354.923828" xlink:href="#DejaVuSans-121"/>
     <use x="2414.103516" xlink:href="#DejaVuSans-95"/>
     <use x="2464.103516" xlink:href="#DejaVuSans-114"/>
     <use x="2502.966797" xlink:href="#DejaVuSans-101"/>
     <use x="2564.490234" xlink:href="#DejaVuSans-112"/>
     <use x="2627.966797" xlink:href="#DejaVuSans-111"/>
     <use x="2689.148438" xlink:href="#DejaVuSans-115"/>
     <use x="2741.248047" xlink:href="#DejaVuSans-92"/>
     <use x="2774.939453" xlink:href="#DejaVuSans-97"/>
     <use x="2836.21875" xlink:href="#DejaVuSans-110"/>
     <use x="2899.597656" xlink:href="#DejaVuSans-116"/>
     <use x="2938.806641" xlink:href="#DejaVuSans-105"/>
     <use x="2966.589844" xlink:href="#DejaVuSans-112"/>
     <use x="3030.066406" xlink:href="#DejaVuSans-101"/>
     <use x="3091.589844" xlink:href="#DejaVuSans-116"/>
     <use x="3130.798828" xlink:href="#DejaVuSans-114"/>
     <use x="3169.662109" xlink:href="#DejaVuSans-111"/>
     <use x="3230.84375" xlink:href="#DejaVuSans-115"/>
     <use x="3282.943359" xlink:href="#DejaVuSans-95"/>
     <use x="3332.943359" xlink:href="#DejaVuSans-100"/>
     <use x="3396.419922" xlink:href="#DejaVuSans-105"/>
     <use x="3424.203125" xlink:href="#DejaVuSans-115"/>
     <use x="3476.302734" xlink:href="#DejaVuSans-99"/>
     <use x="3531.283203" xlink:href="#DejaVuSans-111"/>
     <use x="3592.464844" xlink:href="#DejaVuSans-114"/>
     <use x="3631.828125" xlink:href="#DejaVuSans-100"/>
     <use x="3695.304688" xlink:href="#DejaVuSans-95"/>
     <use x="3745.304688" xlink:href="#DejaVuSans-98"/>
     <use x="3808.78125" xlink:href="#DejaVuSans-111"/>
     <use x="3869.962891" xlink:href="#DejaVuSans-116"/>
     <use x="3909.171875" xlink:href="#DejaVuSans-95"/>
     <use x="3959.171875" xlink:href="#DejaVuSans-110"/>
     <use x="4022.550781" xlink:href="#DejaVuSans-101"/>
     <use x="4084.074219" xlink:href="#DejaVuSans-119"/>
     <use x="4165.861328" xlink:href="#DejaVuSans-92"/>
     <use x="4199.552734" xlink:href="#DejaVuSans-46"/>
     <use x="4231.339844" xlink:href="#DejaVuSans-118"/>
     <use x="4290.519531" xlink:href="#DejaVuSans-101"/>
     <use x="4352.042969" xlink:href="#DejaVuSans-110"/>
     <use x="4415.421875" xlink:href="#DejaVuSans-118"/>
     <use x="4474.601562" xlink:href="#DejaVuSans-92"/>
     <use x="4508.292969" xlink:href="#DejaVuSans-115"/>
     <use x="4560.392578" xlink:href="#DejaVuSans-99"/>
     <use x="4615.373047" xlink:href="#DejaVuSans-114"/>
     <use x="4656.486328" xlink:href="#DejaVuSans-105"/>
     <use x="4684.269531" xlink:href="#DejaVuSans-112"/>
     <use x="4747.746094" xlink:href="#DejaVuSans-116"/>
     <use x="4786.955078" xlink:href="#DejaVuSans-115"/>
     <use x="4839.054688" xlink:href="#DejaVuSans-92"/>
     <use x="4872.746094" xlink:href="#DejaVuSans-112"/>
     <use x="4936.222656" xlink:href="#DejaVuSans-121"/>
     <use x="4995.402344" xlink:href="#DejaVuSans-116"/>
     <use x="5034.611328" xlink:href="#DejaVuSans-104"/>
     <use x="5097.990234" xlink:href="#DejaVuSans-111"/>
     <use x="5159.171875" xlink:href="#DejaVuSans-110"/>
     <use x="5222.550781" xlink:href="#DejaVuSans-46"/>
     <use x="5254.337891" xlink:href="#DejaVuSans-101"/>
     <use x="5314.111328" xlink:href="#DejaVuSans-120"/>
     <use x="5370.166016" xlink:href="#DejaVuSans-101"/>
     <use x="5431.689453" xlink:href="#DejaVuSans-32"/>
     <use x="5463.476562" xlink:href="#DejaVuSans-100"/>
     <use x="5526.953125" xlink:href="#DejaVuSans-58"/>
     <use x="5560.644531" xlink:href="#DejaVuSans-92"/>
     <use x="5594.335938" xlink:href="#DejaVuSans-68"/>
     <use x="5671.337891" xlink:href="#DejaVuSans-114"/>
     <use x="5710.201172" xlink:href="#DejaVuSans-111"/>
     <use x="5771.382812" xlink:href="#DejaVuSans-112"/>
     <use x="5834.859375" xlink:href="#DejaVuSans-98"/>
     <use x="5898.335938" xlink:href="#DejaVuSans-111"/>
     <use x="5956.392578" xlink:href="#DejaVuSans-120"/>
     <use x="6015.572266" xlink:href="#DejaVuSans-92"/>
     <use x="6049.263672" xlink:href="#DejaVuSans-104"/>
     <use x="6112.642578" xlink:href="#DejaVuSans-111"/>
     <use x="6173.824219" xlink:href="#DejaVuSans-98"/>
     <use x="6237.300781" xlink:href="#DejaVuSans-98"/>
     <use x="6300.777344" xlink:href="#DejaVuSans-121"/>
     <use x="6359.957031" xlink:href="#DejaVuSans-92"/>
     <use x="6393.648438" xlink:href="#DejaVuSans-77"/>
     <use x="6479.927734" xlink:href="#DejaVuSans-111"/>
     <use x="6541.109375" xlink:href="#DejaVuSans-100"/>
     <use x="6604.585938" xlink:href="#DejaVuSans-100"/>
     <use x="6668.0625" xlink:href="#DejaVuSans-105"/>
     <use x="6695.845703" xlink:href="#DejaVuSans-110"/>
     <use x="6759.224609" xlink:href="#DejaVuSans-103"/>
     <use x="6822.701172" xlink:href="#DejaVuSans-92"/>
     <use x="6856.392578" xlink:href="#DejaVuSans-80"/>
     <use x="6914.945312" xlink:href="#DejaVuSans-114"/>
     <use x="6953.808594" xlink:href="#DejaVuSans-111"/>
     <use x="7014.990234" xlink:href="#DejaVuSans-103"/>
     <use x="7078.466797" xlink:href="#DejaVuSans-114"/>
     <use x="7119.580078" xlink:href="#DejaVuSans-97"/>
     <use x="7180.859375" xlink:href="#DejaVuSans-109"/>
     <use x="7278.271484" xlink:href="#DejaVuSans-115"/>
     <use x="7330.371094" xlink:href="#DejaVuSans-92"/>
     <use x="7364.0625" xlink:href="#DejaVuSans-71"/>
     <use x="7441.552734" xlink:href="#DejaVuSans-105"/>
     <use x="7469.335938" xlink:href="#DejaVuSans-116"/>
     <use x="7508.544922" xlink:href="#DejaVuSans-104"/>
     <use x="7571.923828" xlink:href="#DejaVuSans-117"/>
     <use x="7635.302734" xlink:href="#DejaVuSans-98"/>
     <use x="7698.779297" xlink:href="#DejaVuSans-92"/>
     <use x="7732.470703" xlink:href="#DejaVuSans-77"/>
     <use x="7818.75" xlink:href="#DejaVuSans-121"/>
     <use x="7877.929688" xlink:href="#DejaVuSans-95"/>
     <use x="7927.929688" xlink:href="#DejaVuSans-82"/>
     <use x="7992.912109" xlink:href="#DejaVuSans-101"/>
     <use x="8054.435547" xlink:href="#DejaVuSans-112"/>
     <use x="8117.912109" xlink:href="#DejaVuSans-111"/>
     <use x="8179.09375" xlink:href="#DejaVuSans-115"/>
     <use x="8231.193359" xlink:href="#DejaVuSans-92"/>
     <use x="8264.884766" xlink:href="#DejaVuSans-65"/>
     <use x="8333.292969" xlink:href="#DejaVuSans-110"/>
     <use x="8396.671875" xlink:href="#DejaVuSans-116"/>
     <use x="8435.880859" xlink:href="#DejaVuSans-105"/>
     <use x="8463.664062" xlink:href="#DejaVuSans-112"/>
     <use x="8527.140625" xlink:href="#DejaVuSans-101"/>
     <use x="8588.664062" xlink:href="#DejaVuSans-116"/>
     <use x="8627.873047" xlink:href="#DejaVuSans-114"/>
     <use x="8666.736328" xlink:href="#DejaVuSans-111"/>
     <use x="8727.917969" xlink:href="#DejaVuSans-115"/>
     <use x="8780.017578" xlink:href="#DejaVuSans-95"/>
     <use x="8830.017578" xlink:href="#DejaVuSans-68"/>
     <use x="8907.019531" xlink:href="#DejaVuSans-105"/>
     <use x="8934.802734" xlink:href="#DejaVuSans-115"/>
     <use x="8986.902344" xlink:href="#DejaVuSans-99"/>
     <use x="9041.882812" xlink:href="#DejaVuSans-111"/>
     <use x="9103.064453" xlink:href="#DejaVuSans-114"/>
     <use x="9142.427734" xlink:href="#DejaVuSans-100"/>
     <use x="9205.904297" xlink:href="#DejaVuSans-95"/>
     <use x="9255.904297" xlink:href="#DejaVuSans-66"/>
     <use x="9324.507812" xlink:href="#DejaVuSans-111"/>
     <use x="9385.689453" xlink:href="#DejaVuSans-116"/>
     <use x="9424.898438" xlink:href="#DejaVuSans-95"/>
     <use x="9474.898438" xlink:href="#DejaVuSans-110"/>
     <use x="9538.277344" xlink:href="#DejaVuSans-101"/>
     <use x="9599.800781" xlink:href="#DejaVuSans-119"/>
     <use x="9681.587891" xlink:href="#DejaVuSans-92"/>
     <use x="9715.279297" xlink:href="#DejaVuSans-97"/>
     <use x="9776.558594" xlink:href="#DejaVuSans-110"/>
     <use x="9839.9375" xlink:href="#DejaVuSans-116"/>
     <use x="9879.146484" xlink:href="#DejaVuSans-105"/>
     <use x="9906.929688" xlink:href="#DejaVuSans-112"/>
     <use x="9970.40625" xlink:href="#DejaVuSans-101"/>
     <use x="10031.929688" xlink:href="#DejaVuSans-116"/>
     <use x="10071.138672" xlink:href="#DejaVuSans-114"/>
     <use x="10110.001953" xlink:href="#DejaVuSans-111"/>
     <use x="10171.183594" xlink:href="#DejaVuSans-115"/>
     <use x="10223.283203" xlink:href="#DejaVuSans-95"/>
     <use x="10273.283203" xlink:href="#DejaVuSans-100"/>
     <use x="10336.759766" xlink:href="#DejaVuSans-105"/>
     <use x="10364.542969" xlink:href="#DejaVuSans-115"/>
     <use x="10416.642578" xlink:href="#DejaVuSans-99"/>
     <use x="10471.623047" xlink:href="#DejaVuSans-111"/>
     <use x="10532.804688" xlink:href="#DejaVuSans-114"/>
     <use x="10572.167969" xlink:href="#DejaVuSans-100"/>
     <use x="10635.644531" xlink:href="#DejaVuSans-98"/>
     <use x="10699.121094" xlink:href="#DejaVuSans-111"/>
     <use x="10760.302734" xlink:href="#DejaVuSans-116"/>
     <use x="10799.511719" xlink:href="#DejaVuSans-92"/>
     <use x="10833.203125" xlink:href="#DejaVuSans-95"/>
     <use x="10883.203125" xlink:href="#DejaVuSans-95"/>
     <use x="10933.203125" xlink:href="#DejaVuSans-109"/>
     <use x="11030.615234" xlink:href="#DejaVuSans-97"/>
     <use x="11091.894531" xlink:href="#DejaVuSans-105"/>
     <use x="11119.677734" xlink:href="#DejaVuSans-110"/>
     <use x="11183.056641" xlink:href="#DejaVuSans-95"/>
     <use x="11233.056641" xlink:href="#DejaVuSans-95"/>
     <use x="11283.056641" xlink:href="#DejaVuSans-46"/>
     <use x="11314.84375" xlink:href="#DejaVuSans-112"/>
     <use x="11378.320312" xlink:href="#DejaVuSans-121"/>
    </g>
    <!--  -->
    <g transform="translate(403.2 58.8)scale(0.12 -0.12)"/>
   </g>
   <g id="legend_1">
    <g id="patch_7">
     <path d="M 712.6 235.639063 
L 931.785937 235.639063 
Q 933.785937 235.639063 933.785937 233.639063 
L 933.785937 219.960938 
Q 933.785937 217.960938 931.785937 217.960938 
L 712.6 217.960938 
Q 710.6 217.960938 710.6 219.960938 
L 710.6 233.639063 
Q 710.6 235.639063 712.6 235.639063 
z
" style="fill:#ffffff;opacity:0.5;stroke:#cccccc;stroke-linejoin:miter;"/>
    </g>
    <g id="line2d_34">
     <path d="M 714.6 226.059375 
L 734.6 226.059375 
" style="fill:none;stroke:#000000;stroke-linecap:square;stroke-width:1.5;"/>
    </g>
    <g id="line2d_35">
     <g>
      <use style="stroke:#000000;" x="724.6" xlink:href="#mcd4ae40c7b" y="226.059375"/>
     </g>
    </g>
    <g id="text_20">
     <!-- 11 / 12 / 2020 - start at 03:14:52.317 -->
     <g transform="translate(742.6 229.559375)scale(0.1 -0.1)">
      <defs>
       <path d="M 25.390625 72.90625 
L 33.6875 72.90625 
L 8.296875 -9.28125 
L 0 -9.28125 
z
" id="DejaVuSans-47"/>
       <path d="M 4.890625 31.390625 
L 31.203125 31.390625 
L 31.203125 23.390625 
L 4.890625 23.390625 
z
" id="DejaVuSans-45"/>
       <path d="M 37.796875 64.3125 
L 12.890625 25.390625 
L 37.796875 25.390625 
z
M 35.203125 72.90625 
L 47.609375 72.90625 
L 47.609375 25.390625 
L 58.015625 25.390625 
L 58.015625 17.1875 
L 47.609375 17.1875 
L 47.609375 0 
L 37.796875 0 
L 37.796875 17.1875 
L 4.890625 17.1875 
L 4.890625 26.703125 
z
" id="DejaVuSans-52"/>
      </defs>
      <use xlink:href="#DejaVuSans-49"/>
      <use x="63.623047" xlink:href="#DejaVuSans-49"/>
      <use x="127.246094" xlink:href="#DejaVuSans-32"/>
      <use x="159.033203" xlink:href="#DejaVuSans-47"/>
      <use x="192.724609" xlink:href="#DejaVuSans-32"/>
      <use x="224.511719" xlink:href="#DejaVuSans-49"/>
      <use x="288.134766" xlink:href="#DejaVuSans-50"/>
      <use x="351.757812" xlink:href="#DejaVuSans-32"/>
      <use x="383.544922" xlink:href="#DejaVuSans-47"/>
      <use x="417.236328" xlink:href="#DejaVuSans-32"/>
      <use x="449.023438" xlink:href="#DejaVuSans-50"/>
      <use x="512.646484" xlink:href="#DejaVuSans-48"/>
      <use x="576.269531" xlink:href="#DejaVuSans-50"/>
      <use x="639.892578" xlink:href="#DejaVuSans-48"/>
      <use x="703.515625" xlink:href="#DejaVuSans-32"/>
      <use x="735.302734" xlink:href="#DejaVuSans-45"/>
      <use x="771.386719" xlink:href="#DejaVuSans-32"/>
      <use x="803.173828" xlink:href="#DejaVuSans-115"/>
      <use x="855.273438" xlink:href="#DejaVuSans-116"/>
      <use x="894.482422" xlink:href="#DejaVuSans-97"/>
      <use x="955.761719" xlink:href="#DejaVuSans-114"/>
      <use x="996.875" xlink:href="#DejaVuSans-116"/>
      <use x="1036.083984" xlink:href="#DejaVuSans-32"/>
      <use x="1067.871094" xlink:href="#DejaVuSans-97"/>
      <use x="1129.150391" xlink:href="#DejaVuSans-116"/>
      <use x="1168.359375" xlink:href="#DejaVuSans-32"/>
      <use x="1200.146484" xlink:href="#DejaVuSans-48"/>
      <use x="1263.769531" xlink:href="#DejaVuSans-51"/>
      <use x="1327.392578" xlink:href="#DejaVuSans-58"/>
      <use x="1361.083984" xlink:href="#DejaVuSans-49"/>
      <use x="1424.707031" xlink:href="#DejaVuSans-52"/>
      <use x="1488.330078" xlink:href="#DejaVuSans-58"/>
      <use x="1522.021484" xlink:href="#DejaVuSans-53"/>
      <use x="1585.644531" xlink:href="#DejaVuSans-50"/>
      <use x="1649.267578" xlink:href="#DejaVuSans-46"/>
      <use x="1681.054688" xlink:href="#DejaVuSans-51"/>
      <use x="1744.677734" xlink:href="#DejaVuSans-49"/>
      <use x="1808.300781" xlink:href="#DejaVuSans-55"/>
     </g>
    </g>
   </g>
  </g>
 </g>
 <defs>
  <clipPath id="pc1f145cb3b">
   <rect height="324" width="604.8" x="100.8" y="64.8"/>
  </clipPath>
 </defs>
</svg>
